<svg version="1.1" id="Layer_1" xmlns="http://www.w3.org/2000/svg" xmlns:xlink="http://www.w3.org/1999/xlink" x="0px" y="0px"
	 width="100%" viewBox="0 0 1398 406" enable-background="new 0 0 1398 406" xml:space="preserve">
<path fill="#302F38" opacity="1.000000" stroke="none" 
	d="
M980.000000,407.000000 
	C653.333374,407.000000 327.166718,407.000000 1.000044,407.000000 
	C1.000029,271.666687 1.000029,136.333389 1.000015,1.000062 
	C466.999969,1.000041 932.999939,1.000041 1399.000000,1.000021 
	C1399.000000,136.333267 1399.000000,271.666534 1399.000000,406.999908 
	C1259.500000,407.000000 1120.000000,407.000000 980.000000,407.000000 
M159.500595,109.670807 
	C150.674210,109.672462 141.846954,109.596024 133.021637,109.693871 
	C119.388664,109.845024 109.236084,119.662170 109.196800,133.316406 
	C109.061180,180.445190 109.058838,227.574875 109.198517,274.703644 
	C109.238991,288.357849 119.400085,298.234833 133.048981,298.295135 
	C156.529846,298.398804 180.012024,298.399017 203.492188,298.233521 
	C206.721207,298.210754 210.160004,297.500183 213.125580,296.229950 
	C222.247971,292.322571 226.443771,284.761505 227.232819,274.864075 
	C233.003220,274.864075 238.478668,274.937531 243.951508,274.848663 
	C255.068268,274.668121 262.561737,267.457764 262.618469,256.389557 
	C262.756744,229.411728 262.747925,202.432343 262.624603,175.454361 
	C262.573120,164.188004 255.306824,157.164108 244.090546,157.056107 
	C238.494507,157.002228 232.897507,157.046722 226.962723,157.046722 
	C226.962723,148.939728 227.003571,141.473557 226.954056,134.007996 
	C226.856598,119.311005 217.250702,109.746628 202.467209,109.685677 
	C188.478561,109.627998 174.489502,109.671722 159.500595,109.670807 
M556.278625,226.335861 
	C557.715759,227.358078 559.152954,228.380295 561.081665,229.752151 
	C552.833008,233.446350 547.247681,238.910599 546.272095,247.705383 
	C545.300232,256.466919 549.390747,262.964142 557.369019,267.840942 
	C554.946167,268.821991 553.427612,269.397186 551.940918,270.045288 
	C542.646118,274.097290 537.776978,283.229431 539.647583,293.205322 
	C541.481079,302.982941 548.498535,308.244049 556.855042,311.785889 
	C570.390442,317.522705 584.666748,317.984833 599.033142,316.208038 
	C608.546021,315.031555 617.596680,312.234131 625.310181,306.250641 
	C633.612549,299.810272 637.738098,291.556305 635.149048,280.909515 
	C632.642700,270.602966 624.681030,265.619568 615.309570,264.416473 
	C603.662048,262.921143 591.762268,263.424713 579.975464,262.961517 
	C576.176453,262.812164 572.309265,262.717102 568.614075,261.933319 
	C559.423096,259.983826 555.274597,253.799683 557.003479,245.284119 
	C558.354553,238.628967 567.578613,233.361511 574.813660,233.690491 
	C583.531555,234.086899 592.668396,234.659454 600.993530,232.603378 
	C630.182556,225.394562 634.301758,194.751358 618.723694,179.584534 
	C617.590210,178.480942 617.141479,175.854156 617.502869,174.179031 
	C618.946045,167.489868 623.018127,162.910583 629.758240,161.084457 
	C632.416016,160.364365 635.167236,159.988953 637.835266,159.464554 
	C637.052063,150.294052 635.075500,148.928909 627.033997,151.444672 
	C618.391724,154.148422 612.931091,159.880127 610.319336,168.468140 
	C609.902222,169.839493 609.372437,171.176559 608.835388,172.697495 
	C596.718750,167.643433 584.599976,166.517075 572.269958,169.557755 
	C559.464172,172.715790 548.836670,179.194168 545.252991,192.674881 
	C541.832397,205.542374 545.005615,217.089569 556.278625,226.335861 
M691.507446,262.990479 
	C687.341492,262.968353 683.147156,263.244965 679.016418,262.852539 
	C673.158508,262.295959 667.320740,261.130005 664.037659,255.410156 
	C661.336914,250.704758 661.184448,245.648193 664.430725,241.255844 
	C668.285767,236.039734 673.688599,232.968018 680.378662,233.934937 
	C691.308960,235.514755 701.942505,234.951996 712.278503,230.872742 
	C733.453918,222.515625 739.625244,197.528732 725.021240,180.274429 
	C723.529785,178.512314 722.841675,174.985336 723.455872,172.734360 
	C725.132629,166.589615 729.356262,162.440201 735.802979,161.001480 
	C738.339050,160.435501 740.904602,160.001480 743.421692,159.514191 
	C742.367493,148.466690 739.878479,149.271545 731.780945,151.790802 
	C721.685669,154.931580 716.846069,162.732254 714.723999,172.698120 
	C712.368225,171.888657 710.355347,171.107498 708.290894,170.502075 
	C694.338806,166.410263 680.619568,166.859985 667.458862,173.317627 
	C647.140259,183.287476 643.279602,209.863495 659.889893,224.706055 
	C661.839722,226.448380 664.059448,227.888702 666.617432,229.818634 
	C658.475952,233.400940 652.870239,238.815552 651.877502,247.631332 
	C650.886719,256.430634 654.946655,262.915741 662.366028,267.470337 
	C658.370728,269.834259 654.374512,271.409668 651.391357,274.105896 
	C640.798096,283.680267 643.008911,299.530914 655.832336,308.180054 
	C673.931519,320.387573 711.367004,320.083252 729.245117,307.467346 
	C735.084534,303.346680 739.933594,298.336426 740.978516,290.809479 
	C742.877258,277.131622 735.795532,266.836578 721.340942,264.443817 
	C711.907288,262.882202 702.128967,263.402649 691.507446,262.990479 
M980.381165,182.884247 
	C994.992004,167.789688 1009.602844,152.695145 1024.807373,136.987152 
	C1016.666748,135.989334 1010.689026,135.837555 1004.859497,142.085678 
	C983.949158,164.497528 962.294067,186.214554 940.908569,208.182602 
	C939.933044,209.184769 938.841431,210.073975 937.037964,211.711044 
	C937.037964,186.173386 937.037964,161.625259 937.037964,136.798553 
	C933.121399,136.798553 929.712708,136.798553 926.287231,136.798553 
	C926.287231,182.126663 926.287231,227.062424 926.287231,272.281311 
	C929.926575,272.281311 933.317688,272.281311 937.057861,272.281311 
	C937.057861,264.044739 937.036804,256.226135 937.064209,248.407669 
	C937.088684,241.413101 935.261902,233.627243 937.748413,227.643417 
	C940.313171,221.471359 947.065308,217.020889 952.048340,211.878159 
	C955.691833,208.117935 959.437256,204.456482 963.302979,200.584946 
	C964.659180,202.360565 965.615601,203.506317 966.457520,204.730728 
	C980.794006,225.579834 995.120667,246.435699 1009.438660,267.297485 
	C1013.412964,273.088257 1018.409302,274.443054 1025.707642,271.555420 
	C1025.357422,270.976715 1025.047729,270.403168 1024.681152,269.868683 
	C1009.238586,247.355972 993.812866,224.831604 978.334045,202.343857 
	C971.318665,192.151993 971.270264,192.185303 980.381165,182.884247 
M1119.890381,255.886841 
	C1119.851440,249.893616 1119.811279,243.900421 1119.774048,237.907181 
	C1119.693359,224.922272 1120.086182,211.912537 1119.405273,198.959229 
	C1118.683838,185.236694 1111.700073,175.057327 1098.330933,171.072769 
	C1091.013794,168.891953 1082.918457,167.926270 1075.307129,168.428589 
	C1060.903809,169.379135 1049.417358,176.096191 1042.194214,189.230286 
	C1040.024048,193.176285 1039.900635,195.925720 1044.515381,197.766174 
	C1045.985962,198.352646 1047.372925,199.148392 1049.145630,200.018982 
	C1055.123413,182.791748 1067.859497,177.133713 1084.456299,177.913040 
	C1096.373291,178.472641 1105.199341,185.366699 1107.556152,196.283600 
	C1108.391235,200.150970 1108.325195,204.207169 1108.775757,208.165176 
	C1109.092896,210.952972 1108.219849,212.312912 1105.202148,212.822784 
	C1096.694702,214.260223 1088.182617,215.781036 1079.793579,217.778076 
	C1070.801636,219.918610 1061.574219,221.757935 1053.132202,225.338501 
	C1043.509399,229.419861 1038.772095,237.622391 1038.959717,248.499573 
	C1039.131348,258.455444 1044.037842,265.280182 1052.471313,269.562988 
	C1061.656982,274.227753 1071.580078,275.005646 1081.661987,273.208191 
	C1092.259888,271.318695 1101.415161,266.681122 1108.450317,257.846863 
	C1111.064941,269.839630 1117.903198,274.816467 1129.743896,273.873199 
	C1136.531006,273.332520 1138.449219,270.132416 1136.018311,263.405792 
	C1124.463745,264.920990 1122.534058,264.119904 1119.890381,255.886841 
M397.074585,253.499268 
	C397.074585,241.405502 397.074585,229.311737 397.074585,216.964279 
	C408.976196,216.964279 420.284454,217.095276 431.587097,216.900894 
	C436.215607,216.821274 440.936829,216.505371 445.435974,215.495529 
	C465.946716,210.891937 477.818054,197.305191 477.798248,176.464844 
	C477.778229,155.416168 464.842194,140.497925 444.962769,138.223602 
	C426.055908,136.060516 406.793182,137.004501 387.686279,136.613281 
	C387.235931,136.604065 386.778046,136.961716 386.269531,137.170456 
	C386.269531,182.113419 386.269531,227.032593 386.269531,272.302917 
	C389.870117,272.302917 393.259369,272.302917 397.074585,272.302917 
	C397.074585,266.105896 397.074585,260.302338 397.074585,253.499268 
M772.921875,202.494217 
	C769.357178,193.540512 765.803528,184.582397 762.224243,175.634521 
	C759.499084,168.821899 754.361877,167.074203 747.433044,170.648483 
	C761.134033,203.271988 774.864868,235.892029 788.477356,268.561371 
	C789.308472,270.555969 790.074219,273.276733 789.378418,275.085907 
	C786.580322,282.361755 783.600525,289.628754 779.928040,296.492493 
	C774.952698,305.791321 766.880737,309.038879 756.795532,306.217285 
	C753.218994,305.216644 749.927246,303.198303 746.290039,301.546722 
	C745.948120,302.202209 745.349792,303.180084 744.907837,304.224091 
	C742.421387,310.098602 742.697876,310.989136 748.439209,313.745911 
	C756.446106,317.590546 764.775940,318.229095 773.192017,315.393127 
	C783.269531,311.997223 788.217407,303.688629 791.971497,294.592377 
	C804.904175,263.256622 817.693298,231.861618 830.522278,200.483124 
	C834.635193,190.423492 838.702148,180.345139 842.810608,170.225006 
	C833.448059,167.559921 831.319397,168.592117 828.296204,176.439117 
	C819.694336,198.765472 811.029907,221.067749 802.390076,243.379486 
	C800.380859,248.568268 798.371582,253.757019 795.927612,260.068237 
	C788.013306,240.353119 780.564331,221.797150 772.921875,202.494217 
M1219.065186,169.516495 
	C1218.574219,172.524368 1218.083252,175.532242 1217.475464,179.255325 
	C1225.161377,179.255325 1231.565430,179.255325 1238.162476,179.255325 
	C1238.162476,181.648605 1238.161865,183.474548 1238.162354,185.300491 
	C1238.168335,205.461349 1238.040405,225.623444 1238.224487,245.782684 
	C1238.364380,261.105621 1244.300415,269.576508 1256.893188,272.854340 
	C1265.570679,275.113068 1274.034912,274.259827 1282.153198,270.330994 
	C1290.171387,266.450562 1290.557495,264.713165 1284.671753,257.329346 
	C1283.095093,258.432343 1281.564575,259.679749 1279.876343,260.653381 
	C1272.639282,264.827393 1265.000854,265.656372 1257.472168,261.933380 
	C1251.021118,258.743378 1249.411011,252.383163 1249.363647,245.853989 
	C1249.202759,223.701874 1249.302246,201.547867 1249.302246,178.870834 
	C1261.963257,178.870834 1274.540649,178.870834 1287.011841,178.870834 
	C1288.642822,169.283554 1288.612915,169.244919 1279.910400,169.244110 
	C1269.781372,169.243179 1259.652466,169.243881 1248.895752,169.243881 
	C1248.895752,159.541138 1248.895752,150.346527 1248.895752,140.936035 
	C1247.265381,141.261108 1246.287354,141.420380 1245.327271,141.653198 
	C1238.160767,143.391113 1238.161987,143.395691 1238.162354,150.695496 
	C1238.162598,156.786438 1238.162476,162.877380 1238.162476,169.293015 
	C1231.590820,169.293015 1225.777832,169.293015 1219.065186,169.516495 
M1156.910767,253.489624 
	C1156.911865,258.483551 1156.850098,263.478821 1156.959106,268.470398 
	C1156.985718,269.689667 1157.445801,271.887848 1157.921509,271.948425 
	C1160.991943,272.339264 1164.188110,272.628693 1167.187622,272.088776 
	C1167.967651,271.948395 1168.600830,268.742493 1168.614502,266.939453 
	C1168.756470,248.130722 1168.504639,229.315765 1168.890869,210.513382 
	C1169.134155,198.672531 1174.433716,188.986176 1184.278809,182.303467 
	C1192.751099,176.552673 1201.857910,176.090912 1211.427002,181.423294 
	C1212.362671,177.283325 1213.182007,173.658325 1214.130981,169.459717 
	C1194.714966,165.272522 1179.055054,169.416992 1168.058594,188.495712 
	C1167.491821,181.127319 1167.055786,175.460541 1166.633057,169.965439 
	C1157.487793,168.132324 1156.911499,168.586609 1156.911133,177.084869 
	C1156.910156,202.220810 1156.910767,227.356750 1156.910767,253.489624 
M514.723145,173.913925 
	C515.374390,167.900879 510.962555,169.464218 507.730804,169.223221 
	C504.551331,168.986115 502.880157,169.858185 502.894531,173.615341 
	C503.015686,205.273224 502.952148,236.931793 503.010712,268.590027 
	C503.012939,269.781769 503.583130,271.946442 504.080658,272.004150 
	C507.157135,272.361298 510.358459,272.607819 513.353577,272.032898 
	C514.116821,271.886353 514.663574,268.635162 514.668274,266.808777 
	C514.747437,236.150375 514.724731,205.491714 514.723145,173.913925 
M515.028809,123.464951 
	C513.710754,122.781906 512.462219,121.786491 511.061523,121.474678 
	C506.945587,120.558441 503.183533,121.610153 501.152710,125.412659 
	C499.081207,129.291229 498.973175,133.583160 502.212128,137.033020 
	C505.285858,140.306915 509.220795,140.750275 513.203918,138.748688 
	C518.189148,136.243546 519.079407,130.254211 515.028809,123.464951 
z"/>
<path fill="#F0EBED" opacity="1.000000" stroke="none" 
	d="
M160.000610,109.670822 
	C174.489502,109.671722 188.478561,109.627998 202.467209,109.685677 
	C217.250702,109.746628 226.856598,119.311005 226.954056,134.007996 
	C227.003571,141.473557 226.962723,148.939728 226.962723,157.046722 
	C232.897507,157.046722 238.494507,157.002228 244.090546,157.056107 
	C255.306824,157.164108 262.573120,164.188004 262.624603,175.454361 
	C262.747925,202.432343 262.756744,229.411728 262.618469,256.389557 
	C262.561737,267.457764 255.068268,274.668121 243.951508,274.848663 
	C238.478668,274.937531 233.003220,274.864075 227.232819,274.864075 
	C226.443771,284.761505 222.247971,292.322571 213.125580,296.229950 
	C210.160004,297.500183 206.721207,298.210754 203.492188,298.233521 
	C180.012024,298.399017 156.529846,298.398804 133.048981,298.295135 
	C119.400085,298.234833 109.238991,288.357849 109.198517,274.703644 
	C109.058838,227.574875 109.061180,180.445190 109.196800,133.316406 
	C109.236084,119.662170 119.388664,109.845024 133.021637,109.693871 
	C141.846954,109.596024 150.674210,109.672462 160.000610,109.670822 
M144.102966,202.530594 
	C144.103012,219.512482 144.100281,236.494354 144.104279,253.476242 
	C144.106323,262.118073 145.720963,263.771118 154.189789,263.774994 
	C170.172668,263.782288 186.155548,263.777374 202.138428,263.777252 
	C215.790466,263.777130 229.442520,263.763641 243.094528,263.783783 
	C247.350098,263.790039 250.908417,262.600830 251.344055,257.770935 
	C251.710876,253.704163 251.419525,249.578033 251.419525,244.993774 
	C242.747772,244.993774 234.621094,245.159927 226.504440,244.945969 
	C218.747314,244.741486 212.401978,239.289200 210.395721,231.604324 
	C208.675034,225.013321 211.525970,216.936768 217.814163,213.478836 
	C221.275116,211.575623 225.597046,210.701508 229.601120,210.439896 
	C236.813553,209.968674 244.078857,210.306732 251.490341,210.306732 
	C251.490341,205.817535 251.610001,202.155792 251.459457,198.505173 
	C251.279526,194.141891 248.917343,191.797897 244.472839,191.796722 
	C211.106110,191.787888 177.739380,191.791916 144.102966,191.791916 
	C144.102966,194.911453 144.102966,198.227539 144.102966,202.530594 
M170.500107,274.858948 
	C164.337265,274.858215 158.173813,274.913422 152.011734,274.844818 
	C140.214676,274.713501 133.095963,267.579437 133.076263,255.763458 
	C133.032135,229.279984 133.039276,202.796371 133.072174,176.312866 
	C133.087479,163.987305 139.932495,157.088379 152.156769,157.063766 
	C171.478027,157.024872 190.799408,157.052551 210.120743,157.052032 
	C211.897995,157.051987 213.675232,157.052032 215.895279,157.052032 
	C215.895279,149.375046 215.919998,142.252365 215.889328,135.129913 
	C215.846405,125.160484 211.542557,120.848007 201.589615,120.839104 
	C179.769852,120.819588 157.950073,120.828812 136.130295,120.833618 
	C124.367516,120.836205 120.231407,124.951126 120.230011,136.674194 
	C120.224663,181.646255 120.226906,226.618301 120.232300,271.590363 
	C120.232475,273.088013 120.163055,274.602997 120.354660,276.080261 
	C121.156677,282.263733 125.554955,287.004761 131.403076,287.044159 
	C155.886108,287.209045 180.371674,287.227905 204.854431,287.046631 
	C211.327866,286.998688 215.448044,281.938629 215.405853,274.858948 
	C200.774216,274.858948 186.137146,274.858948 170.500107,274.858948 
M189.499847,180.715225 
	C210.081284,180.715225 230.662720,180.715225 251.257065,180.715225 
	C252.276749,169.689880 250.877518,168.090607 240.067886,168.090439 
	C210.901321,168.089996 181.734741,168.080734 152.568176,168.099976 
	C146.928024,168.103699 144.143661,170.217545 144.120850,174.345398 
	C144.098175,178.449188 146.947662,180.679855 152.500000,180.700180 
	C164.499802,180.744095 176.499878,180.714645 189.499847,180.715225 
M231.690445,233.988556 
	C238.126953,233.988556 244.563461,233.988556 251.249237,233.988556 
	C251.249237,229.633484 251.249237,225.751358 251.249237,221.350952 
	C244.006866,221.350952 237.075333,221.343567 230.143860,221.358200 
	C228.984772,221.360657 227.803635,221.333847 226.671036,221.535736 
	C223.094208,222.173340 220.414200,224.464523 221.302170,227.943542 
	C221.891068,230.250824 224.702469,232.156143 226.846802,233.818558 
	C227.686813,234.469788 229.422241,233.966034 231.690445,233.988556 
z"/>
<path fill="#EFEAEB" opacity="1.000000" stroke="none" 
	d="
M555.983765,226.118790 
	C545.005615,217.089569 541.832397,205.542374 545.252991,192.674881 
	C548.836670,179.194168 559.464172,172.715790 572.269958,169.557755 
	C584.599976,166.517075 596.718750,167.643433 608.835388,172.697495 
	C609.372437,171.176559 609.902222,169.839493 610.319336,168.468140 
	C612.931091,159.880127 618.391724,154.148422 627.033997,151.444672 
	C635.075500,148.928909 637.052063,150.294052 637.835266,159.464554 
	C635.167236,159.988953 632.416016,160.364365 629.758240,161.084457 
	C623.018127,162.910583 618.946045,167.489868 617.502869,174.179031 
	C617.141479,175.854156 617.590210,178.480942 618.723694,179.584534 
	C634.301758,194.751358 630.182556,225.394562 600.993530,232.603378 
	C592.668396,234.659454 583.531555,234.086899 574.813660,233.690491 
	C567.578613,233.361511 558.354553,238.628967 557.003479,245.284119 
	C555.274597,253.799683 559.423096,259.983826 568.614075,261.933319 
	C572.309265,262.717102 576.176453,262.812164 579.975464,262.961517 
	C591.762268,263.424713 603.662048,262.921143 615.309570,264.416473 
	C624.681030,265.619568 632.642700,270.602966 635.149048,280.909515 
	C637.738098,291.556305 633.612549,299.810272 625.310181,306.250641 
	C617.596680,312.234131 608.546021,315.031555 599.033142,316.208038 
	C584.666748,317.984833 570.390442,317.522705 556.855042,311.785889 
	C548.498535,308.244049 541.481079,302.982941 539.647583,293.205322 
	C537.776978,283.229431 542.646118,274.097290 551.940918,270.045288 
	C553.427612,269.397186 554.946167,268.821991 557.369019,267.840942 
	C549.390747,262.964142 545.300232,256.466919 546.272095,247.705383 
	C547.247681,238.910599 552.833008,233.446350 561.081665,229.752151 
	C559.152954,228.380295 557.715759,227.358078 555.983765,226.118790 
M573.611145,223.206268 
	C581.249573,225.677261 588.977173,225.448059 596.692200,223.760010 
	C606.732361,221.563248 615.106873,212.953186 615.739563,204.395309 
	C616.601501,192.734314 611.597473,184.308167 600.554932,180.319336 
	C590.235901,176.591812 579.707031,176.642334 569.505920,181.084198 
	C563.154785,183.849686 558.388733,188.259369 556.498840,195.242661 
	C553.161987,207.571945 559.314331,218.015976 573.611145,223.206268 
M621.879639,296.198730 
	C628.629028,286.341888 624.952209,275.456024 612.930054,274.383636 
	C596.470398,272.915436 579.770142,273.346771 563.219360,274.051758 
	C555.552002,274.378387 550.759583,280.059784 549.900757,286.225372 
	C549.013428,292.595734 552.255493,298.075165 559.380249,301.682129 
	C571.285278,307.709229 584.071655,307.880280 596.908386,306.625763 
	C605.931763,305.743927 614.594055,303.448700 621.879639,296.198730 
z"/>
<path fill="#EFEAEB" opacity="1.000000" stroke="none" 
	d="
M692.006226,262.990479 
	C702.128967,263.402649 711.907288,262.882202 721.340942,264.443817 
	C735.795532,266.836578 742.877258,277.131622 740.978516,290.809479 
	C739.933594,298.336426 735.084534,303.346680 729.245117,307.467346 
	C711.367004,320.083252 673.931519,320.387573 655.832336,308.180054 
	C643.008911,299.530914 640.798096,283.680267 651.391357,274.105896 
	C654.374512,271.409668 658.370728,269.834259 662.366028,267.470337 
	C654.946655,262.915741 650.886719,256.430634 651.877502,247.631332 
	C652.870239,238.815552 658.475952,233.400940 666.617432,229.818634 
	C664.059448,227.888702 661.839722,226.448380 659.889893,224.706055 
	C643.279602,209.863495 647.140259,183.287476 667.458862,173.317627 
	C680.619568,166.859985 694.338806,166.410263 708.290894,170.502075 
	C710.355347,171.107498 712.368225,171.888657 714.723999,172.698120 
	C716.846069,162.732254 721.685669,154.931580 731.780945,151.790802 
	C739.878479,149.271545 742.367493,148.466690 743.421692,159.514191 
	C740.904602,160.001480 738.339050,160.435501 735.802979,161.001480 
	C729.356262,162.440201 725.132629,166.589615 723.455872,172.734360 
	C722.841675,174.985336 723.529785,178.512314 725.021240,180.274429 
	C739.625244,197.528732 733.453918,222.515625 712.278503,230.872742 
	C701.942505,234.951996 691.308960,235.514755 680.378662,233.934937 
	C673.688599,232.968018 668.285767,236.039734 664.430725,241.255844 
	C661.184448,245.648193 661.336914,250.704758 664.037659,255.410156 
	C667.320740,261.130005 673.158508,262.295959 679.016418,262.852539 
	C683.147156,263.244965 687.341492,262.968353 692.006226,262.990479 
M680.822388,179.001572 
	C679.397766,179.440063 677.941589,179.796524 676.553650,180.330338 
	C667.120667,183.958221 661.102722,191.789444 661.122131,200.945999 
	C661.143494,211.037491 666.448120,217.865860 675.414551,221.795807 
	C685.441528,226.190598 695.827698,226.234344 705.988953,222.446472 
	C716.656799,218.469727 721.525024,210.852997 721.252136,199.925110 
	C721.017029,190.511292 715.233337,183.390335 704.730469,179.883621 
	C697.164734,177.357574 689.442566,177.120895 680.822388,179.001572 
M706.401672,272.709900 
	C697.238892,272.708862 688.072693,272.563202 678.914795,272.774200 
	C674.956360,272.865387 670.875854,273.209473 667.096985,274.295349 
	C660.835754,276.094543 655.875122,279.865906 655.269043,286.916779 
	C654.688965,293.666504 658.542786,298.232574 664.189880,301.261780 
	C676.309753,307.763000 689.422852,307.838043 702.612305,306.611786 
	C710.979553,305.833801 719.074829,303.731842 725.577759,298.018646 
	C734.517517,290.164581 732.320312,278.710632 721.053772,275.024414 
	C716.705933,273.601868 711.942688,273.448822 706.401672,272.709900 
z"/>
<path fill="#F0ECED" opacity="1.000000" stroke="none" 
	d="
M980.145203,183.147842 
	C971.270264,192.185303 971.318665,192.151993 978.334045,202.343857 
	C993.812866,224.831604 1009.238586,247.355972 1024.681152,269.868683 
	C1025.047729,270.403168 1025.357422,270.976715 1025.707642,271.555420 
	C1018.409302,274.443054 1013.412964,273.088257 1009.438660,267.297485 
	C995.120667,246.435699 980.794006,225.579834 966.457520,204.730728 
	C965.615601,203.506317 964.659180,202.360565 963.302979,200.584946 
	C959.437256,204.456482 955.691833,208.117935 952.048340,211.878159 
	C947.065308,217.020889 940.313171,221.471359 937.748413,227.643417 
	C935.261902,233.627243 937.088684,241.413101 937.064209,248.407669 
	C937.036804,256.226135 937.057861,264.044739 937.057861,272.281311 
	C933.317688,272.281311 929.926575,272.281311 926.287231,272.281311 
	C926.287231,227.062424 926.287231,182.126663 926.287231,136.798553 
	C929.712708,136.798553 933.121399,136.798553 937.037964,136.798553 
	C937.037964,161.625259 937.037964,186.173386 937.037964,211.711044 
	C938.841431,210.073975 939.933044,209.184769 940.908569,208.182602 
	C962.294067,186.214554 983.949158,164.497528 1004.859497,142.085678 
	C1010.689026,135.837555 1016.666748,135.989334 1024.807373,136.987152 
	C1009.602844,152.695145 994.992004,167.789688 980.145203,183.147842 
z"/>
<path fill="#EFEAEB" opacity="1.000000" stroke="none" 
	d="
M1119.946533,256.322174 
	C1122.534058,264.119904 1124.463745,264.920990 1136.018311,263.405792 
	C1138.449219,270.132416 1136.531006,273.332520 1129.743896,273.873199 
	C1117.903198,274.816467 1111.064941,269.839630 1108.450317,257.846863 
	C1101.415161,266.681122 1092.259888,271.318695 1081.661987,273.208191 
	C1071.580078,275.005646 1061.656982,274.227753 1052.471313,269.562988 
	C1044.037842,265.280182 1039.131348,258.455444 1038.959717,248.499573 
	C1038.772095,237.622391 1043.509399,229.419861 1053.132202,225.338501 
	C1061.574219,221.757935 1070.801636,219.918610 1079.793579,217.778076 
	C1088.182617,215.781036 1096.694702,214.260223 1105.202148,212.822784 
	C1108.219849,212.312912 1109.092896,210.952972 1108.775757,208.165176 
	C1108.325195,204.207169 1108.391235,200.150970 1107.556152,196.283600 
	C1105.199341,185.366699 1096.373291,178.472641 1084.456299,177.913040 
	C1067.859497,177.133713 1055.123413,182.791748 1049.145630,200.018982 
	C1047.372925,199.148392 1045.985962,198.352646 1044.515381,197.766174 
	C1039.900635,195.925720 1040.024048,193.176285 1042.194214,189.230286 
	C1049.417358,176.096191 1060.903809,169.379135 1075.307129,168.428589 
	C1082.918457,167.926270 1091.013794,168.891953 1098.330933,171.072769 
	C1111.700073,175.057327 1118.683838,185.236694 1119.405273,198.959229 
	C1120.086182,211.912537 1119.693359,224.922272 1119.774048,237.907181 
	C1119.811279,243.900421 1119.851440,249.893616 1119.946533,256.322174 
M1108.767822,226.684387 
	C1108.684570,225.127686 1108.601440,223.570969 1108.491455,221.513351 
	C1099.481689,223.277786 1090.990967,224.703934 1082.620728,226.648361 
	C1074.748413,228.477142 1066.815430,230.346054 1059.260010,233.144470 
	C1052.937988,235.486008 1049.886963,241.058762 1050.220459,247.825760 
	C1050.563599,254.791473 1054.288330,259.980530 1060.978394,261.865875 
	C1066.147705,263.322723 1071.768921,264.300964 1077.079224,263.927612 
	C1094.597900,262.695892 1110.154907,254.025879 1108.776855,231.121658 
	C1108.707153,229.961700 1108.767944,228.793900 1108.767822,226.684387 
z"/>
<path fill="#F0ECED" opacity="1.000000" stroke="none" 
	d="
M397.074585,253.999023 
	C397.074585,260.302338 397.074585,266.105896 397.074585,272.302917 
	C393.259369,272.302917 389.870117,272.302917 386.269531,272.302917 
	C386.269531,227.032593 386.269531,182.113419 386.269531,137.170456 
	C386.778046,136.961716 387.235931,136.604065 387.686279,136.613281 
	C406.793182,137.004501 426.055908,136.060516 444.962769,138.223602 
	C464.842194,140.497925 477.778229,155.416168 477.798248,176.464844 
	C477.818054,197.305191 465.946716,210.891937 445.435974,215.495529 
	C440.936829,216.505371 436.215607,216.821274 431.587097,216.900894 
	C420.284454,217.095276 408.976196,216.964279 397.074585,216.964279 
	C397.074585,229.311737 397.074585,241.405502 397.074585,253.999023 
M456.605286,153.834991 
	C451.327454,151.590027 446.191193,147.930618 440.743256,147.385513 
	C428.216553,146.132095 415.538361,146.387726 402.921173,146.048752 
	C401.009918,145.997391 399.096100,146.041565 397.429565,146.041565 
	C397.429565,166.480621 397.429565,186.194946 397.429565,205.016739 
	C412.068878,205.016739 426.383545,205.670624 440.606659,204.810608 
	C452.059784,204.118073 460.932465,197.909988 464.362671,186.521744 
	C467.915100,174.727875 466.586090,163.470917 456.605286,153.834991 
z"/>
<path fill="#EFEAEB" opacity="1.000000" stroke="none" 
	d="
M773.018555,202.867706 
	C780.564331,221.797150 788.013306,240.353119 795.927612,260.068237 
	C798.371582,253.757019 800.380859,248.568268 802.390076,243.379486 
	C811.029907,221.067749 819.694336,198.765472 828.296204,176.439117 
	C831.319397,168.592117 833.448059,167.559921 842.810608,170.225006 
	C838.702148,180.345139 834.635193,190.423492 830.522278,200.483124 
	C817.693298,231.861618 804.904175,263.256622 791.971497,294.592377 
	C788.217407,303.688629 783.269531,311.997223 773.192017,315.393127 
	C764.775940,318.229095 756.446106,317.590546 748.439209,313.745911 
	C742.697876,310.989136 742.421387,310.098602 744.907837,304.224091 
	C745.349792,303.180084 745.948120,302.202209 746.290039,301.546722 
	C749.927246,303.198303 753.218994,305.216644 756.795532,306.217285 
	C766.880737,309.038879 774.952698,305.791321 779.928040,296.492493 
	C783.600525,289.628754 786.580322,282.361755 789.378418,275.085907 
	C790.074219,273.276733 789.308472,270.555969 788.477356,268.561371 
	C774.864868,235.892029 761.134033,203.271988 747.433044,170.648483 
	C754.361877,167.074203 759.499084,168.821899 762.224243,175.634521 
	C765.803528,184.582397 769.357178,193.540512 773.018555,202.867706 
z"/>
<path fill="#EFEAEB" opacity="1.000000" stroke="none" 
	d="
M1219.515137,169.404755 
	C1225.777832,169.293015 1231.590820,169.293015 1238.162476,169.293015 
	C1238.162476,162.877380 1238.162598,156.786438 1238.162354,150.695496 
	C1238.161987,143.395691 1238.160767,143.391113 1245.327271,141.653198 
	C1246.287354,141.420380 1247.265381,141.261108 1248.895752,140.936035 
	C1248.895752,150.346527 1248.895752,159.541138 1248.895752,169.243881 
	C1259.652466,169.243881 1269.781372,169.243179 1279.910400,169.244110 
	C1288.612915,169.244919 1288.642822,169.283554 1287.011841,178.870834 
	C1274.540649,178.870834 1261.963257,178.870834 1249.302246,178.870834 
	C1249.302246,201.547867 1249.202759,223.701874 1249.363647,245.853989 
	C1249.411011,252.383163 1251.021118,258.743378 1257.472168,261.933380 
	C1265.000854,265.656372 1272.639282,264.827393 1279.876343,260.653381 
	C1281.564575,259.679749 1283.095093,258.432343 1284.671753,257.329346 
	C1290.557495,264.713165 1290.171387,266.450562 1282.153198,270.330994 
	C1274.034912,274.259827 1265.570679,275.113068 1256.893188,272.854340 
	C1244.300415,269.576508 1238.364380,261.105621 1238.224487,245.782684 
	C1238.040405,225.623444 1238.168335,205.461349 1238.162354,185.300491 
	C1238.161865,183.474548 1238.162476,181.648605 1238.162476,179.255325 
	C1231.565430,179.255325 1225.161377,179.255325 1217.475464,179.255325 
	C1218.083252,175.532242 1218.574219,172.524368 1219.515137,169.404755 
z"/>
<path fill="#EDE8E9" opacity="1.000000" stroke="none" 
	d="
M1156.910767,252.991150 
	C1156.910767,227.356750 1156.910156,202.220810 1156.911133,177.084869 
	C1156.911499,168.586609 1157.487793,168.132324 1166.633057,169.965439 
	C1167.055786,175.460541 1167.491821,181.127319 1168.058594,188.495712 
	C1179.055054,169.416992 1194.714966,165.272522 1214.130981,169.459717 
	C1213.182007,173.658325 1212.362671,177.283325 1211.427002,181.423294 
	C1201.857910,176.090912 1192.751099,176.552673 1184.278809,182.303467 
	C1174.433716,188.986176 1169.134155,198.672531 1168.890869,210.513382 
	C1168.504639,229.315765 1168.756470,248.130722 1168.614502,266.939453 
	C1168.600830,268.742493 1167.967651,271.948395 1167.187622,272.088776 
	C1164.188110,272.628693 1160.991943,272.339264 1157.921509,271.948425 
	C1157.445801,271.887848 1156.985718,269.689667 1156.959106,268.470398 
	C1156.850098,263.478821 1156.911865,258.483551 1156.910767,252.991150 
z"/>
<path fill="#EBE6E8" opacity="1.000000" stroke="none" 
	d="
M514.723877,174.373505 
	C514.724731,205.491714 514.747437,236.150375 514.668274,266.808777 
	C514.663574,268.635162 514.116821,271.886353 513.353577,272.032898 
	C510.358459,272.607819 507.157135,272.361298 504.080658,272.004150 
	C503.583130,271.946442 503.012939,269.781769 503.010712,268.590027 
	C502.952148,236.931793 503.015686,205.273224 502.894531,173.615341 
	C502.880157,169.858185 504.551331,168.986115 507.730804,169.223221 
	C510.962555,169.464218 515.374390,167.900879 514.723877,174.373505 
z"/>
<path fill="#EFEAEB" opacity="1.000000" stroke="none" 
	d="
M515.298462,123.735886 
	C519.079407,130.254211 518.189148,136.243546 513.203918,138.748688 
	C509.220795,140.750275 505.285858,140.306915 502.212128,137.033020 
	C498.973175,133.583160 499.081207,129.291229 501.152710,125.412659 
	C503.183533,121.610153 506.945587,120.558441 511.061523,121.474678 
	C512.462219,121.786491 513.710754,122.781906 515.298462,123.735886 
z"/>
<path fill="#32313A" opacity="1.000000" stroke="none" 
	d="
M144.102966,202.037109 
	C144.102966,198.227539 144.102966,194.911453 144.102966,191.791916 
	C177.739380,191.791916 211.106110,191.787888 244.472839,191.796722 
	C248.917343,191.797897 251.279526,194.141891 251.459457,198.505173 
	C251.610001,202.155792 251.490341,205.817535 251.490341,210.306732 
	C244.078857,210.306732 236.813553,209.968674 229.601120,210.439896 
	C225.597046,210.701508 221.275116,211.575623 217.814163,213.478836 
	C211.525970,216.936768 208.675034,225.013321 210.395721,231.604324 
	C212.401978,239.289200 218.747314,244.741486 226.504440,244.945969 
	C234.621094,245.159927 242.747772,244.993774 251.419525,244.993774 
	C251.419525,249.578033 251.710876,253.704163 251.344055,257.770935 
	C250.908417,262.600830 247.350098,263.790039 243.094528,263.783783 
	C229.442520,263.763641 215.790466,263.777130 202.138428,263.777252 
	C186.155548,263.777374 170.172668,263.782288 154.189789,263.774994 
	C145.720963,263.771118 144.106323,262.118073 144.104279,253.476242 
	C144.100281,236.494354 144.103012,219.512482 144.102966,202.037109 
z"/>
<path fill="#33323B" opacity="1.000000" stroke="none" 
	d="
M171.000092,274.858948 
	C186.137146,274.858948 200.774216,274.858948 215.405853,274.858948 
	C215.448044,281.938629 211.327866,286.998688 204.854431,287.046631 
	C180.371674,287.227905 155.886108,287.209045 131.403076,287.044159 
	C125.554955,287.004761 121.156677,282.263733 120.354660,276.080261 
	C120.163055,274.602997 120.232475,273.088013 120.232300,271.590363 
	C120.226906,226.618301 120.224663,181.646255 120.230011,136.674194 
	C120.231407,124.951126 124.367516,120.836205 136.130295,120.833618 
	C157.950073,120.828812 179.769852,120.819588 201.589615,120.839104 
	C211.542557,120.848007 215.846405,125.160484 215.889328,135.129913 
	C215.919998,142.252365 215.895279,149.375046 215.895279,157.052032 
	C213.675232,157.052032 211.897995,157.051987 210.120743,157.052032 
	C190.799408,157.052551 171.478027,157.024872 152.156769,157.063766 
	C139.932495,157.088379 133.087479,163.987305 133.072174,176.312866 
	C133.039276,202.796371 133.032135,229.279984 133.076263,255.763458 
	C133.095963,267.579437 140.214676,274.713501 152.011734,274.844818 
	C158.173813,274.913422 164.337265,274.858215 171.000092,274.858948 
M156.799545,139.427399 
	C158.434891,141.000580 159.898880,143.634995 161.740250,143.932327 
	C165.942856,144.610947 170.361328,144.439774 174.626556,143.990997 
	C176.210526,143.824341 178.344162,142.192795 178.894867,140.728287 
	C179.475174,139.185043 179.035583,136.631866 178.036362,135.243301 
	C175.455856,131.657318 160.351303,132.249939 157.698181,135.835175 
	C157.151382,136.574066 157.081375,137.665787 156.799545,139.427399 
z"/>
<path fill="#393840" opacity="1.000000" stroke="none" 
	d="
M188.999847,180.715210 
	C176.499878,180.714645 164.499802,180.744095 152.500000,180.700180 
	C146.947662,180.679855 144.098175,178.449188 144.120850,174.345398 
	C144.143661,170.217545 146.928024,168.103699 152.568176,168.099976 
	C181.734741,168.080734 210.901321,168.089996 240.067886,168.090439 
	C250.877518,168.090607 252.276749,169.689880 251.257065,180.715225 
	C230.662720,180.715225 210.081284,180.715225 188.999847,180.715210 
z"/>
<path fill="#3C3A43" opacity="1.000000" stroke="none" 
	d="
M231.220154,233.988419 
	C229.422241,233.966034 227.686813,234.469788 226.846802,233.818558 
	C224.702469,232.156143 221.891068,230.250824 221.302170,227.943542 
	C220.414200,224.464523 223.094208,222.173340 226.671036,221.535736 
	C227.803635,221.333847 228.984772,221.360657 230.143860,221.358200 
	C237.075333,221.343567 244.006866,221.350952 251.249237,221.350952 
	C251.249237,225.751358 251.249237,229.633484 251.249237,233.988556 
	C244.563461,233.988556 238.126953,233.988556 231.220154,233.988419 
z"/>
<path fill="#32313A" opacity="1.000000" stroke="none" 
	d="
M573.232666,223.074448 
	C559.314331,218.015976 553.161987,207.571945 556.498840,195.242661 
	C558.388733,188.259369 563.154785,183.849686 569.505920,181.084198 
	C579.707031,176.642334 590.235901,176.591812 600.554932,180.319336 
	C611.597473,184.308167 616.601501,192.734314 615.739563,204.395309 
	C615.106873,212.953186 606.732361,221.563248 596.692200,223.760010 
	C588.977173,225.448059 581.249573,225.677261 573.232666,223.074448 
z"/>
<path fill="#323139" opacity="1.000000" stroke="none" 
	d="
M621.625000,296.475342 
	C614.594055,303.448700 605.931763,305.743927 596.908386,306.625763 
	C584.071655,307.880280 571.285278,307.709229 559.380249,301.682129 
	C552.255493,298.075165 549.013428,292.595734 549.900757,286.225372 
	C550.759583,280.059784 555.552002,274.378387 563.219360,274.051758 
	C579.770142,273.346771 596.470398,272.915436 612.930054,274.383636 
	C624.952209,275.456024 628.629028,286.341888 621.625000,296.475342 
z"/>
<path fill="#32313A" opacity="1.000000" stroke="none" 
	d="
M681.242920,178.949249 
	C689.442566,177.120895 697.164734,177.357574 704.730469,179.883621 
	C715.233337,183.390335 721.017029,190.511292 721.252136,199.925110 
	C721.525024,210.852997 716.656799,218.469727 705.988953,222.446472 
	C695.827698,226.234344 685.441528,226.190598 675.414551,221.795807 
	C666.448120,217.865860 661.143494,211.037491 661.122131,200.945999 
	C661.102722,191.789444 667.120667,183.958221 676.553650,180.330338 
	C677.941589,179.796524 679.397766,179.440063 681.242920,178.949249 
z"/>
<path fill="#323139" opacity="1.000000" stroke="none" 
	d="
M706.885193,272.713623 
	C711.942688,273.448822 716.705933,273.601868 721.053772,275.024414 
	C732.320312,278.710632 734.517517,290.164581 725.577759,298.018646 
	C719.074829,303.731842 710.979553,305.833801 702.612305,306.611786 
	C689.422852,307.838043 676.309753,307.763000 664.189880,301.261780 
	C658.542786,298.232574 654.688965,293.666504 655.269043,286.916779 
	C655.875122,279.865906 660.835754,276.094543 667.096985,274.295349 
	C670.875854,273.209473 674.956360,272.865387 678.914795,272.774200 
	C688.072693,272.563202 697.238892,272.708862 706.885193,272.713623 
z"/>
<path fill="#33323B" opacity="1.000000" stroke="none" 
	d="
M1108.767822,227.157074 
	C1108.767944,228.793900 1108.707153,229.961700 1108.776855,231.121658 
	C1110.154907,254.025879 1094.597900,262.695892 1077.079224,263.927612 
	C1071.768921,264.300964 1066.147705,263.322723 1060.978394,261.865875 
	C1054.288330,259.980530 1050.563599,254.791473 1050.220459,247.825760 
	C1049.886963,241.058762 1052.937988,235.486008 1059.260010,233.144470 
	C1066.815430,230.346054 1074.748413,228.477142 1082.620728,226.648361 
	C1090.990967,224.703934 1099.481689,223.277786 1108.491455,221.513351 
	C1108.601440,223.570969 1108.684570,225.127686 1108.767822,227.157074 
z"/>
<path fill="#313039" opacity="1.000000" stroke="none" 
	d="
M456.876770,154.074554 
	C466.586090,163.470917 467.915100,174.727875 464.362671,186.521744 
	C460.932465,197.909988 452.059784,204.118073 440.606659,204.810608 
	C426.383545,205.670624 412.068878,205.016739 397.429565,205.016739 
	C397.429565,186.194946 397.429565,166.480621 397.429565,146.041565 
	C399.096100,146.041565 401.009918,145.997391 402.921173,146.048752 
	C415.538361,146.387726 428.216553,146.132095 440.743256,147.385513 
	C446.191193,147.930618 451.327454,151.590027 456.876770,154.074554 
z"/>
<path fill="#EFEAEB" opacity="1.000000" stroke="none" 
	d="
M156.795593,139.011139 
	C157.081375,137.665787 157.151382,136.574066 157.698181,135.835175 
	C160.351303,132.249939 175.455856,131.657318 178.036362,135.243301 
	C179.035583,136.631866 179.475174,139.185043 178.894867,140.728287 
	C178.344162,142.192795 176.210526,143.824341 174.626556,143.990997 
	C170.361328,144.439774 165.942856,144.610947 161.740250,143.932327 
	C159.898880,143.634995 158.434891,141.000580 156.795593,139.011139 
z"/>
</svg>