<svg version="1.1" id="Layer_1" xmlns="http://www.w3.org/2000/svg" xmlns:xlink="http://www.w3.org/1999/xlink" x="0px" y="0px"
	 width="100%" viewBox="0 0 1080 1080" enable-background="new 0 0 1080 1080" xml:space="preserve">
<path fill="#F76A7B" opacity="1.000000" stroke="none" 
	d="
M601.000000,1081.000000 
	C400.689728,1081.000000 200.879456,1081.000000 1.034590,1081.000000 
	C1.034590,721.064575 1.034590,361.129211 1.034590,1.096903 
	C360.893829,1.096903 720.787659,1.096903 1080.840820,1.096903 
	C1080.840820,360.999939 1080.840820,720.999939 1080.840820,1081.000000 
	C921.128723,1081.000000 761.314392,1081.000000 601.000000,1081.000000 
M688.091980,612.570862 
	C692.924255,612.542664 697.775085,612.774841 702.585083,612.432922 
	C713.095886,611.685608 720.857788,603.951233 720.930603,593.607605 
	C721.122864,566.276489 721.146912,538.941650 720.905945,511.611267 
	C720.813782,501.149200 712.347778,493.256500 701.863892,492.943878 
	C698.589783,492.846222 695.310364,492.928741 691.678772,492.928741 
	C691.678772,490.458496 691.678833,488.645416 691.678772,486.832306 
	C691.678162,466.166138 691.701416,445.499939 691.661743,424.833862 
	C691.650085,418.743256 689.979858,417.083221 683.950439,417.062653 
	C671.617615,417.020660 659.284424,417.049500 646.951416,417.049225 
	C642.995728,417.049164 639.040039,417.049225 634.661377,417.049225 
	C634.661377,414.709564 634.661499,412.914886 634.661316,411.120209 
	C634.659912,398.620514 634.639709,386.120819 634.667114,373.621185 
	C634.676758,369.221405 632.930359,366.461273 628.174255,366.825684 
	C625.332825,367.043365 624.713440,365.442932 623.801758,363.232117 
	C620.007263,354.030762 616.917419,344.346893 611.796204,335.917145 
	C586.617493,294.472198 549.776794,271.356354 501.119965,268.371796 
	C483.192261,267.272156 465.617462,270.295868 448.679718,276.577454 
	C445.214355,277.862640 443.872375,280.065460 444.886261,283.509949 
	C446.004089,287.307648 448.868561,287.532959 452.097046,286.561401 
	C453.848663,286.034271 455.561005,285.377625 457.307434,284.831757 
	C467.783295,281.557343 478.429108,279.308258 489.619751,279.139557 
	C489.619751,315.927155 489.619751,352.289001 489.619751,388.428894 
	C463.834839,362.619873 438.108643,336.869659 411.971619,310.708221 
	C416.295410,307.410950 420.943451,303.680664 425.792694,300.233398 
	C429.056671,297.913116 431.082703,295.355988 428.420776,291.564911 
	C425.792664,287.821960 422.580627,289.193573 419.771790,291.387634 
	C413.352081,296.402222 406.451874,300.987061 400.809540,306.781281 
	C365.754059,342.780518 354.525452,385.841125 364.655090,434.575104 
	C375.442078,486.471619 421.112732,527.966980 475.623871,535.869568 
	C479.742432,536.466675 480.751190,537.929749 480.705750,541.832947 
	C480.513733,558.330261 480.572693,574.831543 480.680054,591.330383 
	C480.698181,594.110657 480.952515,597.048889 481.878357,599.634644 
	C485.039093,608.462219 491.828766,612.564758 502.732697,612.568542 
	C553.398132,612.585999 604.063538,612.578247 654.728943,612.568176 
	C656.224182,612.567871 658.188477,613.010559 659.112671,612.249390 
	C660.806641,610.854309 662.977417,608.672424 662.909912,606.896118 
	C662.844971,605.188293 660.413086,603.256409 658.603455,602.049622 
	C657.558289,601.352661 655.686584,601.881897 654.186890,601.881836 
	C603.854797,601.879456 553.522705,601.883423 503.190613,601.876343 
	C493.905731,601.875061 491.079346,598.998840 491.076111,589.571716 
	C491.067780,565.239014 491.071289,540.906250 491.074249,516.573547 
	C491.075531,506.161133 493.555420,503.681183 504.014038,503.680176 
	C556.179443,503.675201 608.344788,503.677246 660.510193,503.678345 
	C673.843201,503.678619 687.176758,503.611847 700.508911,503.718475 
	C707.156250,503.771667 710.282410,506.679993 710.303223,513.013428 
	C710.390381,539.512451 710.385498,566.012085 710.300415,592.511108 
	C710.281128,598.512085 707.005188,601.651062 700.951477,601.846436 
	C696.622681,601.986084 692.284302,601.952698 687.953186,601.859497 
	C684.513794,601.785522 681.935547,602.860168 681.581177,606.610229 
	C681.207153,610.568237 683.393066,612.427917 688.091980,612.570862 
M406.112427,739.624268 
	C392.652893,753.619507 394.126923,783.266479 400.672668,795.822510 
	C411.239380,816.091492 443.743317,819.508972 453.989166,799.767029 
	C454.070618,799.610107 454.529205,799.648926 454.861145,799.587158 
	C454.861145,806.346802 455.316498,813.142395 454.643799,819.824402 
	C454.362915,822.614563 452.221344,825.786255 449.995911,827.706970 
	C442.784149,833.931152 427.155518,834.163391 420.825867,827.189941 
	C416.320007,822.225769 412.338043,822.344421 407.087646,824.098328 
	C404.431702,824.985596 401.663605,825.537170 398.572845,826.337219 
	C401.687195,834.555359 407.293671,839.857910 414.973999,843.098083 
	C425.459351,847.521667 436.392487,847.877991 447.345947,845.742554 
	C466.160034,842.074524 474.810333,831.374084 474.824463,812.391052 
	C474.843506,786.742615 474.833771,761.094116 474.819794,735.445679 
	C474.818909,733.830750 474.674164,732.216003 474.587341,730.414062 
	C468.179657,730.414062 462.114166,730.414062 455.351837,730.414062 
	C455.351837,734.989502 455.351837,739.325073 455.351837,743.677246 
	C454.504761,743.587036 454.277954,743.627869 454.218689,743.546570 
	C453.534943,742.608093 452.848206,741.669556 452.216095,740.696106 
	C447.409973,733.294983 440.542053,729.467102 431.785065,729.147339 
	C421.970490,728.789001 413.480865,731.960876 406.112427,739.624268 
M332.597595,729.075684 
	C315.914246,730.835327 305.165131,739.846680 301.053955,755.795044 
	C298.390289,766.128296 298.182770,776.577942 300.901154,786.928040 
	C304.293060,799.842529 312.039398,808.927795 325.385162,811.905151 
	C338.510712,814.833374 349.901733,812.103882 357.433960,799.736755 
	C357.539856,799.562866 358.007263,799.609192 358.300385,799.553833 
	C358.480072,799.819946 358.793976,800.068665 358.796234,800.320068 
	C358.842621,805.481506 358.976898,810.646362 358.843140,815.804138 
	C358.630981,823.984741 354.952179,829.014221 346.974304,830.980957 
	C336.037079,833.677307 326.105835,832.245972 319.369446,822.043579 
	C313.421112,823.516663 307.854462,824.895203 302.132080,826.312317 
	C305.160889,834.641418 310.783112,839.809265 318.278931,843.011414 
	C328.902222,847.549622 339.986603,847.849243 351.127289,845.672852 
	C366.696198,842.631531 378.840363,832.997559 378.342804,812.581177 
	C377.718109,786.946594 378.197632,761.285217 378.182068,735.635437 
	C378.181030,733.890442 378.024994,732.145630 377.947784,730.540161 
	C371.285156,730.540161 365.223572,730.540161 358.757416,730.540161 
	C358.757416,735.149292 358.757416,739.378418 358.757416,743.607544 
	C352.696198,734.231384 344.636475,729.009216 332.597595,729.075684 
M691.057007,727.571655 
	C698.130249,719.357117 705.203491,711.142517 712.905884,702.197327 
	C705.407715,702.197327 699.241028,702.380371 693.092651,702.124023 
	C689.769104,701.985413 687.597534,703.093994 685.476135,705.630005 
	C673.187500,720.320435 660.735474,734.874268 648.326233,749.463745 
	C647.084900,750.923218 645.759521,752.311157 644.473145,753.732361 
	C644.092407,753.590576 643.711670,753.448853 643.330933,753.307129 
	C643.330933,736.451538 643.330933,719.595947 643.330933,702.500732 
	C636.282043,702.500732 629.895081,702.500732 623.323914,702.500732 
	C623.323914,739.701477 623.323914,776.598633 623.323914,813.748169 
	C629.952271,813.748169 636.345825,813.748169 643.164124,813.748169 
	C643.164124,803.875061 643.111633,794.253601 643.212402,784.633728 
	C643.230530,782.895935 643.360718,780.769897 644.328369,779.501465 
	C647.815674,774.930359 651.683167,770.649353 655.645142,765.978027 
	C656.962280,767.740662 657.983765,769.029663 658.922546,770.376282 
	C668.253296,783.760254 677.529785,797.182373 686.949158,810.503601 
	C687.978455,811.959290 689.761292,813.769348 691.273376,813.845154 
	C698.333618,814.199158 705.421509,814.002136 713.377197,814.002136 
	C698.481812,792.952026 684.127808,772.667114 669.721558,752.308289 
	C676.905762,743.981140 683.751709,736.046082 691.057007,727.571655 
M232.530701,768.046082 
	C245.808502,756.912964 248.122482,742.441284 243.795822,726.825684 
	C239.651886,711.869690 228.570206,703.866333 213.412827,702.787170 
	C199.328125,701.784424 185.142456,702.196838 171.001099,701.996094 
	C168.924057,701.966614 166.846237,701.992004 164.829300,701.992004 
	C164.829300,739.736938 164.829300,776.753174 164.829300,813.737793 
	C171.487488,813.737793 177.744919,813.737793 184.554962,813.737793 
	C184.554962,801.094421 184.554962,788.711548 184.554962,776.002380 
	C191.915146,776.002380 198.722061,776.099854 205.525070,775.978821 
	C214.978149,775.810547 224.094574,774.307739 232.530701,768.046082 
M764.249023,729.208374 
	C744.245544,728.237793 729.298889,736.970459 725.868774,752.095642 
	C731.763184,752.943848 737.617310,753.786194 743.298096,754.603638 
	C749.231445,745.215698 758.277466,741.729126 767.359558,745.051819 
	C772.693848,747.003357 775.725159,751.787781 775.142273,757.612976 
	C774.561279,763.418701 769.615540,762.870361 765.758179,763.850830 
	C765.281189,763.971985 764.757446,763.896851 764.268677,763.985901 
	C755.463379,765.590698 746.415527,766.409790 737.917480,769.018982 
	C726.941040,772.389221 722.533508,779.886292 722.743164,791.440552 
	C722.945190,802.573608 728.600708,810.845032 739.053040,813.967651 
	C753.257080,818.211121 765.987061,816.309387 776.085938,802.099792 
	C776.085938,806.992859 776.085938,810.495422 776.085938,813.840271 
	C782.660095,813.840271 788.583130,813.840271 794.559570,813.840271 
	C794.559570,793.601624 794.973572,773.656738 794.397095,753.740479 
	C794.075195,742.618530 787.181274,735.425354 776.810852,731.868103 
	C773.074890,730.586670 769.053711,730.136658 764.249023,729.208374 
M492.646515,740.959106 
	C501.002350,764.461731 509.365112,787.961853 517.710388,811.468201 
	C520.897766,820.446167 513.449829,829.785095 504.022705,828.641907 
	C502.555206,828.463928 501.103424,828.156616 499.260284,827.843994 
	C497.759003,832.833313 496.303558,837.670288 494.786499,842.712097 
	C495.926788,843.139343 496.664673,843.487610 497.440216,843.695801 
	C515.368591,848.508911 529.821228,841.397583 536.253845,824.034729 
	C544.918579,800.647034 553.200378,777.117493 561.632812,753.643860 
	C564.418152,745.889954 567.160767,738.120667 570.029480,730.058960 
	C562.788635,730.058960 556.151611,730.058960 549.244934,730.058960 
	C542.774109,751.067566 536.319824,772.022461 529.865479,792.977356 
	C528.234558,791.177429 527.625366,789.504517 527.105103,787.804382 
	C521.606628,769.837036 516.172119,751.849670 510.544800,733.922913 
	C510.062683,732.387024 508.396484,730.184631 507.157990,730.100830 
	C501.219818,729.699280 495.239563,729.920593 488.742035,729.920593 
	C490.050385,733.700256 491.183289,736.973022 492.646515,740.959106 
M905.704834,766.500244 
	C905.704834,759.436707 905.704834,752.373169 905.704834,744.870178 
	C911.816956,744.870178 916.896545,744.870178 921.801514,744.870178 
	C921.801514,739.655518 921.801514,734.929688 921.801514,729.835266 
	C916.312744,729.835266 911.205994,729.835266 905.560486,729.835266 
	C905.560486,723.057617 905.560486,716.644409 905.560486,710.315186 
	C898.752075,710.315186 892.501221,710.315186 885.766663,710.315186 
	C885.766663,717.035583 885.766663,723.441772 885.766663,730.223938 
	C881.675293,730.223938 878.079224,730.223938 874.467041,730.223938 
	C874.467041,735.369995 874.467041,740.106140 874.467041,745.268127 
	C878.398499,745.268127 881.998657,745.268127 885.992981,745.268127 
	C885.992981,747.492554 885.989807,749.294006 885.993530,751.095459 
	C886.021790,764.926208 885.634583,778.773560 886.184387,792.583557 
	C886.897461,810.496460 907.608398,821.266968 923.572021,812.200684 
	C922.577271,807.599182 921.568542,802.932861 920.524170,798.101624 
	C919.406555,798.101624 918.601746,798.048706 917.805664,798.109802 
	C908.351074,798.835266 905.792908,796.518250 905.716064,786.997681 
	C905.663574,780.498962 905.705261,773.999390 905.704834,766.500244 
M862.494080,730.166382 
	C852.832031,726.293152 844.062866,730.462036 833.964355,744.278503 
	C833.964355,739.130798 833.964355,734.788452 833.964355,730.528931 
	C827.287720,730.528931 821.232300,730.528931 815.230713,730.528931 
	C815.230713,758.479553 815.230713,786.051025 815.230713,813.708618 
	C821.721924,813.708618 827.942444,813.708618 834.596802,813.708618 
	C834.596802,811.610779 834.596680,809.809204 834.596863,808.007568 
	C834.598328,794.022644 834.508362,780.036926 834.627686,766.053040 
	C834.741516,752.706055 843.763062,744.920898 857.099670,746.425781 
	C858.830078,746.621033 860.561340,746.808167 862.706848,747.044861 
	C862.706848,741.313538 862.706848,736.182007 862.494080,730.166382 
M646.350220,576.765930 
	C652.880676,566.772766 652.097473,560.260315 642.851746,548.399109 
	C643.189453,547.734741 643.593567,547.022888 643.923584,546.278198 
	C649.520996,533.646118 641.445679,521.128296 627.556885,520.941162 
	C623.064392,520.880615 618.570435,520.927307 614.077148,520.933533 
	C609.997925,520.939148 607.950623,522.945618 607.954285,527.069214 
	C607.969177,544.043823 607.956543,561.018494 607.963074,577.993103 
	C607.964783,582.374756 610.311829,584.282593 614.554504,584.252502 
	C619.713196,584.215881 624.874146,584.159058 630.030884,584.266235 
	C636.421936,584.399048 641.706055,582.148254 646.350220,576.765930 
M553.812744,543.819092 
	C553.032654,541.626892 552.423218,539.354858 551.441711,537.256897 
	C547.929932,529.750854 542.479919,524.166138 534.021240,523.116211 
	C527.614014,522.320862 521.053589,522.682373 514.561340,522.681030 
	C511.212524,522.680298 509.134460,524.586304 509.116974,527.929810 
	C509.028961,544.754333 508.997833,561.580261 509.144958,578.403992 
	C509.179291,582.328918 511.583984,584.367798 515.680969,584.266968 
	C520.343140,584.152100 525.013489,584.302673 529.672241,584.126221 
	C538.291443,583.799744 544.951233,579.906921 549.488159,572.576721 
	C554.852112,563.910339 555.643738,554.464600 553.812744,543.819092 
M282.089020,738.562805 
	C282.089020,735.941101 282.089020,733.319397 282.089020,730.511719 
	C275.401703,730.511719 269.196381,730.511719 262.892090,730.511719 
	C262.892090,758.421204 262.892090,785.980103 262.892090,813.687866 
	C269.368927,813.687866 275.585724,813.687866 282.089020,813.687866 
	C282.089020,788.766907 282.089020,764.157959 282.089020,738.562805 
M594.884216,555.547302 
	C596.390198,550.476318 594.693542,547.821777 589.549011,547.632324 
	C584.962463,547.463257 580.364746,547.596802 575.633667,547.596802 
	C575.633667,542.045837 575.633667,537.309021 575.633667,532.074158 
	C580.903381,532.074158 585.864685,532.066406 590.825989,532.076782 
	C594.476074,532.084412 597.051575,530.784302 597.105042,526.691956 
	C597.156128,522.782776 594.507141,521.443054 591.225342,521.361023 
	C584.570007,521.194580 577.906311,521.214478 571.248962,521.325867 
	C567.094971,521.395325 564.873657,523.457336 564.893738,527.889465 
	C564.969238,544.538269 564.943237,561.187561 564.910828,577.836609 
	C564.902466,582.160950 566.871887,584.298157 571.268066,584.256714 
	C577.760681,584.195435 584.254395,584.212097 590.747314,584.252441 
	C594.380615,584.275085 597.050720,583.149231 597.091614,578.996216 
	C597.133240,574.763733 594.361084,573.735779 590.773315,573.748291 
	C585.832947,573.765442 580.892517,573.752563 575.732849,573.752563 
	C575.732849,568.263611 575.732849,563.415894 575.732849,558.150269 
	C579.611023,558.150269 583.103149,558.395752 586.541443,558.071228 
	C589.209229,557.819458 591.809875,556.855774 594.884216,555.547302 
M662.602356,531.978333 
	C664.045776,532.064880 665.489258,532.151428 667.277832,532.258606 
	C667.277832,534.375854 667.277649,536.179260 667.277832,537.982605 
	C667.279053,551.123901 667.290222,564.265198 667.275208,577.406494 
	C667.270935,581.106323 668.210449,584.335327 672.558777,584.366699 
	C676.906860,584.398132 677.907288,581.222717 677.900024,577.491943 
	C677.876892,565.681396 677.892700,553.870850 677.893372,542.060303 
	C677.893555,538.793823 677.893433,535.527405 677.893433,531.888916 
	C681.495056,531.888916 684.693054,532.566223 687.358948,531.666687 
	C689.359253,530.991760 691.721436,528.417847 691.963867,526.448242 
	C692.156921,524.880432 689.456726,521.484985 687.925293,521.414551 
	C677.803772,520.948853 667.641113,520.940918 657.518433,521.386719 
	C655.940918,521.456299 653.361145,524.574402 653.313782,526.338379 
	C653.266052,528.112549 655.557495,530.261780 657.300476,531.647034 
	C658.248718,532.400757 660.187256,531.908386 662.602356,531.978333 
M280.247955,714.794800 
	C284.250397,709.920654 284.724274,705.427551 281.670502,701.306152 
	C278.583099,697.139282 272.713074,695.556946 267.873108,697.586853 
	C263.228607,699.534790 260.426056,704.065796 261.077087,708.574402 
	C261.778595,713.432617 266.068787,717.679382 271.346436,717.691650 
	C274.117310,717.698120 276.891846,716.130066 280.247955,714.794800 
z"/>
<path fill="#070303" opacity="1.000000" stroke="none" 
	d="
M687.660095,612.565186 
	C683.393066,612.427917 681.207153,610.568237 681.581177,606.610229 
	C681.935547,602.860168 684.513794,601.785522 687.953186,601.859497 
	C692.284302,601.952698 696.622681,601.986084 700.951477,601.846436 
	C707.005188,601.651062 710.281128,598.512085 710.300415,592.511108 
	C710.385498,566.012085 710.390381,539.512451 710.303223,513.013428 
	C710.282410,506.679993 707.156250,503.771667 700.508911,503.718475 
	C687.176758,503.611847 673.843201,503.678619 660.510193,503.678345 
	C608.344788,503.677246 556.179443,503.675201 504.014038,503.680176 
	C493.555420,503.681183 491.075531,506.161133 491.074249,516.573547 
	C491.071289,540.906250 491.067780,565.239014 491.076111,589.571716 
	C491.079346,598.998840 493.905731,601.875061 503.190613,601.876343 
	C553.522705,601.883423 603.854797,601.879456 654.186890,601.881836 
	C655.686584,601.881897 657.558289,601.352661 658.603455,602.049622 
	C660.413086,603.256409 662.844971,605.188293 662.909912,606.896118 
	C662.977417,608.672424 660.806641,610.854309 659.112671,612.249390 
	C658.188477,613.010559 656.224182,612.567871 654.728943,612.568176 
	C604.063538,612.578247 553.398132,612.585999 502.732697,612.568542 
	C491.828766,612.564758 485.039093,608.462219 481.878357,599.634644 
	C480.952515,597.048889 480.698181,594.110657 480.680054,591.330383 
	C480.572693,574.831543 480.513733,558.330261 480.705750,541.832947 
	C480.751190,537.929749 479.742432,536.466675 475.623871,535.869568 
	C421.112732,527.966980 375.442078,486.471619 364.655090,434.575104 
	C354.525452,385.841125 365.754059,342.780518 400.809540,306.781281 
	C406.451874,300.987061 413.352081,296.402222 419.771790,291.387634 
	C422.580627,289.193573 425.792664,287.821960 428.420776,291.564911 
	C431.082703,295.355988 429.056671,297.913116 425.792694,300.233398 
	C420.943451,303.680664 416.295410,307.410950 411.971619,310.708221 
	C438.108643,336.869659 463.834839,362.619873 489.619751,388.428894 
	C489.619751,352.289001 489.619751,315.927155 489.619751,279.139557 
	C478.429108,279.308258 467.783295,281.557343 457.307434,284.831757 
	C455.561005,285.377625 453.848663,286.034271 452.097046,286.561401 
	C448.868561,287.532959 446.004089,287.307648 444.886261,283.509949 
	C443.872375,280.065460 445.214355,277.862640 448.679718,276.577454 
	C465.617462,270.295868 483.192261,267.272156 501.119965,268.371796 
	C549.776794,271.356354 586.617493,294.472198 611.796204,335.917145 
	C616.917419,344.346893 620.007263,354.030762 623.801758,363.232117 
	C624.713440,365.442932 625.332825,367.043365 628.174255,366.825684 
	C632.930359,366.461273 634.676758,369.221405 634.667114,373.621185 
	C634.639709,386.120819 634.659912,398.620514 634.661316,411.120209 
	C634.661499,412.914886 634.661377,414.709564 634.661377,417.049225 
	C639.040039,417.049225 642.995728,417.049164 646.951416,417.049225 
	C659.284424,417.049500 671.617615,417.020660 683.950439,417.062653 
	C689.979858,417.083221 691.650085,418.743256 691.661743,424.833862 
	C691.701416,445.499939 691.678162,466.166138 691.678772,486.832306 
	C691.678833,488.645416 691.678772,490.458496 691.678772,492.928741 
	C695.310364,492.928741 698.589783,492.846222 701.863892,492.943878 
	C712.347778,493.256500 720.813782,501.149200 720.905945,511.611267 
	C721.146912,538.941650 721.122864,566.276489 720.930603,593.607605 
	C720.857788,603.951233 713.095886,611.685608 702.585083,612.432922 
	C697.775085,612.774841 692.924255,612.542664 687.660095,612.565186 
M566.987793,426.497284 
	C566.987793,410.007782 566.987366,393.518311 566.987976,377.028809 
	C566.988403,367.236389 567.431274,366.783905 577.034180,366.782623 
	C588.980408,366.781036 600.926575,366.782257 612.878540,366.782257 
	C611.898132,328.113068 538.289429,271.263641 500.449890,279.863373 
	C500.449890,281.744934 500.449951,283.722595 500.449921,285.700256 
	C500.449646,323.509491 500.406525,361.318878 500.510406,399.127808 
	C500.521698,403.236786 499.402710,406.318970 496.412292,409.281219 
	C472.402771,433.064911 448.568481,457.025421 424.613373,480.864319 
	C420.280060,485.176575 415.638672,489.179260 411.181885,493.285797 
	C428.354065,511.815552 463.826691,526.169189 480.407318,525.049988 
	C481.408173,516.536743 478.640076,507.340179 485.197998,499.742828 
	C491.838104,492.050323 500.835327,492.919922 509.930481,492.799377 
	C509.930481,490.717285 509.930450,489.083832 509.930481,487.450348 
	C509.930725,474.958313 509.905457,462.466217 509.942352,449.974274 
	C509.959900,444.024017 511.410736,442.526764 517.276733,442.491730 
	C527.103455,442.433075 536.930725,442.474426 546.757812,442.473999 
	C553.360840,442.473694 559.963806,442.473938 566.987793,442.473938 
	C566.987793,437.096100 566.987793,432.296204 566.987793,426.497284 
M386.462769,462.891602 
	C391.960907,470.871979 397.459045,478.852386 402.655212,486.394440 
	C431.344391,457.724884 459.085480,430.002777 486.162659,402.944092 
	C458.739655,375.476318 431.009583,347.701019 403.077148,319.722961 
	C400.700623,322.597595 397.793518,325.613892 395.453827,329.020020 
	C366.224579,371.572479 363.934113,416.054321 386.462769,462.891602 
M577.710754,491.309052 
	C578.240295,491.830017 578.767334,492.803162 579.299683,492.806122 
	C594.054382,492.888306 608.809570,492.871979 623.801941,492.871979 
	C623.801941,487.868042 623.801941,483.301910 623.801941,478.556427 
	C608.386475,478.556427 593.209839,478.556427 577.657959,478.556427 
	C577.657959,482.729980 577.657959,486.537811 577.710754,491.309052 
M617.372070,377.177063 
	C604.299377,377.177063 591.226746,377.177063 577.909302,377.177063 
	C577.909302,382.344788 577.909302,386.918854 577.909302,391.765564 
	C593.267700,391.765564 608.443970,391.765564 623.646606,391.765564 
	C623.646606,386.822449 623.646606,382.137878 623.646606,377.177094 
	C621.616699,377.177094 619.975342,377.177094 617.372070,377.177063 
M607.496704,402.428345 
	C597.731750,402.428345 587.966736,402.428345 577.926147,402.428345 
	C577.926147,407.516815 577.926147,412.062622 577.926147,416.756104 
	C593.378113,416.756104 608.548889,416.756104 623.704285,416.756104 
	C623.704285,411.899384 623.704285,407.358398 623.704285,402.428406 
	C618.411377,402.428406 613.452759,402.428406 607.496704,402.428345 
M669.483521,427.908112 
	C657.941101,427.908112 646.398682,427.908112 634.925659,427.908112 
	C634.925659,433.136505 634.925659,437.568115 634.925659,442.172852 
	C650.404846,442.172852 665.589661,442.172852 680.742432,442.172852 
	C680.742432,437.278198 680.742432,432.724243 680.742432,427.908112 
	C677.085876,427.908112 673.781799,427.908112 669.483521,427.908112 
M555.479126,453.006653 
	C543.932434,453.006653 532.385742,453.006653 520.996338,453.006653 
	C520.996338,458.343750 520.996338,462.912018 520.996338,467.633667 
	C536.407410,467.633667 551.446228,467.633667 566.677734,467.633667 
	C566.677734,462.691345 566.677734,457.995209 566.677734,453.006653 
	C563.071777,453.006653 559.771606,453.006653 555.479126,453.006653 
M577.655701,461.450745 
	C577.655701,463.405426 577.655701,465.360077 577.655701,467.555908 
	C593.346863,467.555908 608.521484,467.555908 623.814026,467.555908 
	C623.814026,462.650208 623.814026,458.066895 623.814026,453.293457 
	C608.400391,453.293457 593.210693,453.293457 577.655640,453.293457 
	C577.655640,455.874054 577.655640,458.175720 577.655701,461.450745 
M634.650391,460.477417 
	C634.650391,462.762421 634.650391,465.047394 634.650391,467.548523 
	C650.380371,467.548523 665.566895,467.548523 680.849365,467.548523 
	C680.849365,462.632690 680.849365,458.048096 680.849365,453.300049 
	C665.406494,453.300049 650.203796,453.300049 634.650391,453.300049 
	C634.650391,455.562653 634.650391,457.534058 634.650391,460.477417 
M665.495972,492.930695 
	C670.591919,492.930695 675.687866,492.930695 680.759399,492.930695 
	C680.759399,487.714142 680.759399,483.148651 680.759399,478.460541 
	C665.359131,478.460541 650.297058,478.460541 634.937866,478.460541 
	C634.937866,483.291473 634.937866,487.850006 634.937866,492.930695 
	C644.949036,492.930695 654.723389,492.930695 665.495972,492.930695 
M538.501587,478.187103 
	C532.725586,478.187103 526.949585,478.187103 520.901123,478.187103 
	C520.901123,483.310455 520.901123,487.866699 520.901123,492.593323 
	C536.358032,492.593323 551.535156,492.593323 566.667358,492.593323 
	C566.667358,487.687469 566.667358,483.123322 566.667358,478.187103 
	C557.394409,478.187103 548.447632,478.187103 538.501587,478.187103 
M593.501099,442.467377 
	C603.570923,442.467377 613.640747,442.467377 623.635742,442.467377 
	C623.635742,437.167725 623.635742,432.617401 623.635742,428.255493 
	C608.157349,428.255493 593.074951,428.255493 578.102295,428.255493 
	C578.102295,433.143036 578.102295,437.695282 578.102295,442.467468 
	C583.191040,442.467468 587.846130,442.467468 593.501099,442.467377 
z"/>
<path fill="#040202" opacity="1.000000" stroke="none" 
	d="
M406.356873,739.367737 
	C413.480865,731.960876 421.970490,728.789001 431.785065,729.147339 
	C440.542053,729.467102 447.409973,733.294983 452.216095,740.696106 
	C452.848206,741.669556 453.534943,742.608093 454.218689,743.546570 
	C454.277954,743.627869 454.504761,743.587036 455.351837,743.677246 
	C455.351837,739.325073 455.351837,734.989502 455.351837,730.414062 
	C462.114166,730.414062 468.179657,730.414062 474.587341,730.414062 
	C474.674164,732.216003 474.818909,733.830750 474.819794,735.445679 
	C474.833771,761.094116 474.843506,786.742615 474.824463,812.391052 
	C474.810333,831.374084 466.160034,842.074524 447.345947,845.742554 
	C436.392487,847.877991 425.459351,847.521667 414.973999,843.098083 
	C407.293671,839.857910 401.687195,834.555359 398.572845,826.337219 
	C401.663605,825.537170 404.431702,824.985596 407.087646,824.098328 
	C412.338043,822.344421 416.320007,822.225769 420.825867,827.189941 
	C427.155518,834.163391 442.784149,833.931152 449.995911,827.706970 
	C452.221344,825.786255 454.362915,822.614563 454.643799,819.824402 
	C455.316498,813.142395 454.861145,806.346802 454.861145,799.587158 
	C454.529205,799.648926 454.070618,799.610107 453.989166,799.767029 
	C443.743317,819.508972 411.239380,816.091492 400.672668,795.822510 
	C394.126923,783.266479 392.652893,753.619507 406.356873,739.367737 
M441.121674,796.889404 
	C447.415710,795.124512 451.404816,790.863342 453.392487,784.852905 
	C456.406586,775.738647 456.353699,766.520203 452.995056,757.499084 
	C450.024994,749.521667 443.946899,745.250916 436.057770,745.116821 
	C427.831451,744.976868 421.491089,749.072327 418.259766,757.042175 
	C414.904968,765.316650 414.649841,773.898193 416.952118,782.462219 
	C420.065247,794.042603 428.477570,799.166992 441.121674,796.889404 
z"/>
<path fill="#030101" opacity="1.000000" stroke="none" 
	d="
M333.049622,729.056274 
	C344.636475,729.009216 352.696198,734.231384 358.757416,743.607544 
	C358.757416,739.378418 358.757416,735.149292 358.757416,730.540161 
	C365.223572,730.540161 371.285156,730.540161 377.947784,730.540161 
	C378.024994,732.145630 378.181030,733.890442 378.182068,735.635437 
	C378.197632,761.285217 377.718109,786.946594 378.342804,812.581177 
	C378.840363,832.997559 366.696198,842.631531 351.127289,845.672852 
	C339.986603,847.849243 328.902222,847.549622 318.278931,843.011414 
	C310.783112,839.809265 305.160889,834.641418 302.132080,826.312317 
	C307.854462,824.895203 313.421112,823.516663 319.369446,822.043579 
	C326.105835,832.245972 336.037079,833.677307 346.974304,830.980957 
	C354.952179,829.014221 358.630981,823.984741 358.843140,815.804138 
	C358.976898,810.646362 358.842621,805.481506 358.796234,800.320068 
	C358.793976,800.068665 358.480072,799.819946 358.300385,799.553833 
	C358.007263,799.609192 357.539856,799.562866 357.433960,799.736755 
	C349.901733,812.103882 338.510712,814.833374 325.385162,811.905151 
	C312.039398,808.927795 304.293060,799.842529 300.901154,786.928040 
	C298.182770,776.577942 298.390289,766.128296 301.053955,755.795044 
	C305.165131,739.846680 315.914246,730.835327 333.049622,729.056274 
M326.505524,793.048218 
	C336.645508,800.720215 349.970978,798.821777 355.244781,788.305786 
	C360.956116,776.917419 360.811493,764.955200 354.609436,753.834167 
	C348.058319,742.087036 331.280579,742.085510 323.753937,753.239929 
	C317.134766,763.049438 317.140320,784.342224 326.505524,793.048218 
z"/>
<path fill="#030102" opacity="1.000000" stroke="none" 
	d="
M690.827393,727.841309 
	C683.751709,736.046082 676.905762,743.981140 669.721558,752.308289 
	C684.127808,772.667114 698.481812,792.952026 713.377197,814.002136 
	C705.421509,814.002136 698.333618,814.199158 691.273376,813.845154 
	C689.761292,813.769348 687.978455,811.959290 686.949158,810.503601 
	C677.529785,797.182373 668.253296,783.760254 658.922546,770.376282 
	C657.983765,769.029663 656.962280,767.740662 655.645142,765.978027 
	C651.683167,770.649353 647.815674,774.930359 644.328369,779.501465 
	C643.360718,780.769897 643.230530,782.895935 643.212402,784.633728 
	C643.111633,794.253601 643.164124,803.875061 643.164124,813.748169 
	C636.345825,813.748169 629.952271,813.748169 623.323914,813.748169 
	C623.323914,776.598633 623.323914,739.701477 623.323914,702.500732 
	C629.895081,702.500732 636.282043,702.500732 643.330933,702.500732 
	C643.330933,719.595947 643.330933,736.451538 643.330933,753.307129 
	C643.711670,753.448853 644.092407,753.590576 644.473145,753.732361 
	C645.759521,752.311157 647.084900,750.923218 648.326233,749.463745 
	C660.735474,734.874268 673.187500,720.320435 685.476135,705.630005 
	C687.597534,703.093994 689.769104,701.985413 693.092651,702.124023 
	C699.241028,702.380371 705.407715,702.197327 712.905884,702.197327 
	C705.203491,711.142517 698.130249,719.357117 690.827393,727.841309 
z"/>
<path fill="#040202" opacity="1.000000" stroke="none" 
	d="
M232.243286,768.256958 
	C224.094574,774.307739 214.978149,775.810547 205.525070,775.978821 
	C198.722061,776.099854 191.915146,776.002380 184.554962,776.002380 
	C184.554962,788.711548 184.554962,801.094421 184.554962,813.737793 
	C177.744919,813.737793 171.487488,813.737793 164.829300,813.737793 
	C164.829300,776.753174 164.829300,739.736938 164.829300,701.992004 
	C166.846237,701.992004 168.924057,701.966614 171.001099,701.996094 
	C185.142456,702.196838 199.328125,701.784424 213.412827,702.787170 
	C228.570206,703.866333 239.651886,711.869690 243.795822,726.825684 
	C248.122482,742.441284 245.808502,756.912964 232.243286,768.256958 
M188.732178,718.879333 
	C187.341232,719.013184 185.950272,719.147034 184.761414,719.261414 
	C184.761414,732.905640 184.761414,745.966248 184.761414,759.066345 
	C192.759415,759.066345 200.419052,759.595398 207.976700,758.942932 
	C219.431396,757.954041 225.506088,750.060486 225.097382,737.921509 
	C224.718170,726.658752 217.931976,719.613953 206.662369,719.077271 
	C201.014175,718.808289 195.347260,718.932678 188.732178,718.879333 
z"/>
<path fill="#040202" opacity="1.000000" stroke="none" 
	d="
M764.705811,729.257812 
	C769.053711,730.136658 773.074890,730.586670 776.810852,731.868103 
	C787.181274,735.425354 794.075195,742.618530 794.397095,753.740479 
	C794.973572,773.656738 794.559570,793.601624 794.559570,813.840271 
	C788.583130,813.840271 782.660095,813.840271 776.085938,813.840271 
	C776.085938,810.495422 776.085938,806.992859 776.085938,802.099792 
	C765.987061,816.309387 753.257080,818.211121 739.053040,813.967651 
	C728.600708,810.845032 722.945190,802.573608 722.743164,791.440552 
	C722.533508,779.886292 726.941040,772.389221 737.917480,769.018982 
	C746.415527,766.409790 755.463379,765.590698 764.268677,763.985901 
	C764.757446,763.896851 765.281189,763.971985 765.758179,763.850830 
	C769.615540,762.870361 774.561279,763.418701 775.142273,757.612976 
	C775.725159,751.787781 772.693848,747.003357 767.359558,745.051819 
	C758.277466,741.729126 749.231445,745.215698 743.298096,754.603638 
	C737.617310,753.786194 731.763184,752.943848 725.868774,752.095642 
	C729.298889,736.970459 744.245544,728.237793 764.705811,729.257812 
M764.269653,800.005615 
	C774.108398,795.055603 777.335327,787.293030 774.628296,774.851257 
	C772.057983,775.457336 769.501404,776.127258 766.916016,776.656250 
	C760.912964,777.884583 754.777039,778.638489 748.920044,780.353333 
	C743.662170,781.892761 741.206482,786.061829 741.464050,790.887634 
	C741.738464,796.030457 744.709106,799.964539 750.331177,800.747986 
	C754.631042,801.347168 759.132263,800.501953 764.269653,800.005615 
z"/>
<path fill="#030102" opacity="1.000000" stroke="none" 
	d="
M492.481354,740.602478 
	C491.183289,736.973022 490.050385,733.700256 488.742035,729.920593 
	C495.239563,729.920593 501.219818,729.699280 507.157990,730.100830 
	C508.396484,730.184631 510.062683,732.387024 510.544800,733.922913 
	C516.172119,751.849670 521.606628,769.837036 527.105103,787.804382 
	C527.625366,789.504517 528.234558,791.177429 529.865479,792.977356 
	C536.319824,772.022461 542.774109,751.067566 549.244934,730.058960 
	C556.151611,730.058960 562.788635,730.058960 570.029480,730.058960 
	C567.160767,738.120667 564.418152,745.889954 561.632812,753.643860 
	C553.200378,777.117493 544.918579,800.647034 536.253845,824.034729 
	C529.821228,841.397583 515.368591,848.508911 497.440216,843.695801 
	C496.664673,843.487610 495.926788,843.139343 494.786499,842.712097 
	C496.303558,837.670288 497.759003,832.833313 499.260284,827.843994 
	C501.103424,828.156616 502.555206,828.463928 504.022705,828.641907 
	C513.449829,829.785095 520.897766,820.446167 517.710388,811.468201 
	C509.365112,787.961853 501.002350,764.461731 492.481354,740.602478 
z"/>
<path fill="#040202" opacity="1.000000" stroke="none" 
	d="
M905.704834,767.000244 
	C905.705261,773.999390 905.663574,780.498962 905.716064,786.997681 
	C905.792908,796.518250 908.351074,798.835266 917.805664,798.109802 
	C918.601746,798.048706 919.406555,798.101624 920.524170,798.101624 
	C921.568542,802.932861 922.577271,807.599182 923.572021,812.200684 
	C907.608398,821.266968 886.897461,810.496460 886.184387,792.583557 
	C885.634583,778.773560 886.021790,764.926208 885.993530,751.095459 
	C885.989807,749.294006 885.992981,747.492554 885.992981,745.268127 
	C881.998657,745.268127 878.398499,745.268127 874.467041,745.268127 
	C874.467041,740.106140 874.467041,735.369995 874.467041,730.223938 
	C878.079224,730.223938 881.675293,730.223938 885.766663,730.223938 
	C885.766663,723.441772 885.766663,717.035583 885.766663,710.315186 
	C892.501221,710.315186 898.752075,710.315186 905.560486,710.315186 
	C905.560486,716.644409 905.560486,723.057617 905.560486,729.835266 
	C911.205994,729.835266 916.312744,729.835266 921.801514,729.835266 
	C921.801514,734.929688 921.801514,739.655518 921.801514,744.870178 
	C916.896545,744.870178 911.816956,744.870178 905.704834,744.870178 
	C905.704834,752.373169 905.704834,759.436707 905.704834,767.000244 
z"/>
<path fill="#050202" opacity="1.000000" stroke="none" 
	d="
M862.600464,730.608398 
	C862.706848,736.182007 862.706848,741.313538 862.706848,747.044861 
	C860.561340,746.808167 858.830078,746.621033 857.099670,746.425781 
	C843.763062,744.920898 834.741516,752.706055 834.627686,766.053040 
	C834.508362,780.036926 834.598328,794.022644 834.596863,808.007568 
	C834.596680,809.809204 834.596802,811.610779 834.596802,813.708618 
	C827.942444,813.708618 821.721924,813.708618 815.230713,813.708618 
	C815.230713,786.051025 815.230713,758.479553 815.230713,730.528931 
	C821.232300,730.528931 827.287720,730.528931 833.964355,730.528931 
	C833.964355,734.788452 833.964355,739.130798 833.964355,744.278503 
	C844.062866,730.462036 852.832031,726.293152 862.600464,730.608398 
z"/>
<path fill="#040202" opacity="1.000000" stroke="none" 
	d="
M646.132935,577.057922 
	C641.706055,582.148254 636.421936,584.399048 630.030884,584.266235 
	C624.874146,584.159058 619.713196,584.215881 614.554504,584.252502 
	C610.311829,584.282593 607.964783,582.374756 607.963074,577.993103 
	C607.956543,561.018494 607.969177,544.043823 607.954285,527.069214 
	C607.950623,522.945618 609.997925,520.939148 614.077148,520.933533 
	C618.570435,520.927307 623.064392,520.880615 627.556885,520.941162 
	C641.445679,521.128296 649.520996,533.646118 643.923584,546.278198 
	C643.593567,547.022888 643.189453,547.734741 642.851746,548.399109 
	C652.097473,560.260315 652.880676,566.772766 646.132935,577.057922 
M639.303406,561.494202 
	C635.864563,555.658447 628.225647,553.916321 618.660767,556.728638 
	C618.660767,562.313171 618.660767,567.855774 618.660767,573.623413 
	C622.906372,573.623413 626.735474,573.855835 630.526184,573.573486 
	C637.710266,573.038330 640.263550,569.685913 639.303406,561.494202 
M618.235779,534.045532 
	C618.235779,537.627625 618.235779,541.209778 618.235779,544.976501 
	C622.385132,544.976501 625.957336,545.488647 629.273132,544.787659 
	C631.317017,544.355591 633.900452,542.393005 634.540283,540.532471 
	C635.201599,538.609558 634.419861,535.549866 633.169312,533.753235 
	C631.053772,530.714172 621.770447,530.675842 618.235779,534.045532 
z"/>
<path fill="#070304" opacity="1.000000" stroke="none" 
	d="
M553.881714,544.232422 
	C555.643738,554.464600 554.852112,563.910339 549.488159,572.576721 
	C544.951233,579.906921 538.291443,583.799744 529.672241,584.126221 
	C525.013489,584.302673 520.343140,584.152100 515.680969,584.266968 
	C511.583984,584.367798 509.179291,582.328918 509.144958,578.403992 
	C508.997833,561.580261 509.028961,544.754333 509.116974,527.929810 
	C509.134460,524.586304 511.212524,522.680298 514.561340,522.681030 
	C521.053589,522.682373 527.614014,522.320862 534.021240,523.116211 
	C542.479919,524.166138 547.929932,529.750854 551.441711,537.256897 
	C552.423218,539.354858 553.032654,541.626892 553.881714,544.232422 
M544.291077,553.455383 
	C543.786377,537.290894 536.227295,531.013245 520.081787,533.552673 
	C520.081787,546.750000 520.081787,559.978760 520.081787,573.169373 
	C533.888733,574.967529 539.821228,571.765869 543.183167,560.720703 
	C543.803589,558.682129 543.923828,556.491272 544.291077,553.455383 
z"/>
<path fill="#010000" opacity="1.000000" stroke="none" 
	d="
M282.089020,739.055908 
	C282.089020,764.157959 282.089020,788.766907 282.089020,813.687866 
	C275.585724,813.687866 269.368927,813.687866 262.892090,813.687866 
	C262.892090,785.980103 262.892090,758.421204 262.892090,730.511719 
	C269.196381,730.511719 275.401703,730.511719 282.089020,730.511719 
	C282.089020,733.319397 282.089020,735.941101 282.089020,739.055908 
z"/>
<path fill="#040202" opacity="1.000000" stroke="none" 
	d="
M594.662292,555.877930 
	C591.809875,556.855774 589.209229,557.819458 586.541443,558.071228 
	C583.103149,558.395752 579.611023,558.150269 575.732849,558.150269 
	C575.732849,563.415894 575.732849,568.263611 575.732849,573.752563 
	C580.892517,573.752563 585.832947,573.765442 590.773315,573.748291 
	C594.361084,573.735779 597.133240,574.763733 597.091614,578.996216 
	C597.050720,583.149231 594.380615,584.275085 590.747314,584.252441 
	C584.254395,584.212097 577.760681,584.195435 571.268066,584.256714 
	C566.871887,584.298157 564.902466,582.160950 564.910828,577.836609 
	C564.943237,561.187561 564.969238,544.538269 564.893738,527.889465 
	C564.873657,523.457336 567.094971,521.395325 571.248962,521.325867 
	C577.906311,521.214478 584.570007,521.194580 591.225342,521.361023 
	C594.507141,521.443054 597.156128,522.782776 597.105042,526.691956 
	C597.051575,530.784302 594.476074,532.084412 590.825989,532.076782 
	C585.864685,532.066406 580.903381,532.074158 575.633667,532.074158 
	C575.633667,537.309021 575.633667,542.045837 575.633667,547.596802 
	C580.364746,547.596802 584.962463,547.463257 589.549011,547.632324 
	C594.693542,547.821777 596.390198,550.476318 594.662292,555.877930 
z"/>
<path fill="#0B0505" opacity="1.000000" stroke="none" 
	d="
M662.140747,531.978210 
	C660.187256,531.908386 658.248718,532.400757 657.300476,531.647034 
	C655.557495,530.261780 653.266052,528.112549 653.313782,526.338379 
	C653.361145,524.574402 655.940918,521.456299 657.518433,521.386719 
	C667.641113,520.940918 677.803772,520.948853 687.925293,521.414551 
	C689.456726,521.484985 692.156921,524.880432 691.963867,526.448242 
	C691.721436,528.417847 689.359253,530.991760 687.358948,531.666687 
	C684.693054,532.566223 681.495056,531.888916 677.893433,531.888916 
	C677.893433,535.527405 677.893555,538.793823 677.893372,542.060303 
	C677.892700,553.870850 677.876892,565.681396 677.900024,577.491943 
	C677.907288,581.222717 676.906860,584.398132 672.558777,584.366699 
	C668.210449,584.335327 667.270935,581.106323 667.275208,577.406494 
	C667.290222,564.265198 667.279053,551.123901 667.277832,537.982605 
	C667.277649,536.179260 667.277832,534.375854 667.277832,532.258606 
	C665.489258,532.151428 664.045776,532.064880 662.140747,531.978210 
z"/>
<path fill="#050202" opacity="1.000000" stroke="none" 
	d="
M279.956329,715.033936 
	C276.891846,716.130066 274.117310,717.698120 271.346436,717.691650 
	C266.068787,717.679382 261.778595,713.432617 261.077087,708.574402 
	C260.426056,704.065796 263.228607,699.534790 267.873108,697.586853 
	C272.713074,695.556946 278.583099,697.139282 281.670502,701.306152 
	C284.724274,705.427551 284.250397,709.920654 279.956329,715.033936 
z"/>
<path fill="#F5697A" opacity="1.000000" stroke="none" 
	d="
M566.987793,426.996765 
	C566.987793,432.296204 566.987793,437.096100 566.987793,442.473938 
	C559.963806,442.473938 553.360840,442.473694 546.757812,442.473999 
	C536.930725,442.474426 527.103455,442.433075 517.276733,442.491730 
	C511.410736,442.526764 509.959900,444.024017 509.942352,449.974274 
	C509.905457,462.466217 509.930725,474.958313 509.930481,487.450348 
	C509.930450,489.083832 509.930481,490.717285 509.930481,492.799377 
	C500.835327,492.919922 491.838104,492.050323 485.197998,499.742828 
	C478.640076,507.340179 481.408173,516.536743 480.407318,525.049988 
	C463.826691,526.169189 428.354065,511.815552 411.181885,493.285797 
	C415.638672,489.179260 420.280060,485.176575 424.613373,480.864319 
	C448.568481,457.025421 472.402771,433.064911 496.412292,409.281219 
	C499.402710,406.318970 500.521698,403.236786 500.510406,399.127808 
	C500.406525,361.318878 500.449646,323.509491 500.449921,285.700256 
	C500.449951,283.722595 500.449890,281.744934 500.449890,279.863373 
	C538.289429,271.263641 611.898132,328.113068 612.878540,366.782257 
	C600.926575,366.782257 588.980408,366.781036 577.034180,366.782623 
	C567.431274,366.783905 566.988403,367.236389 566.987976,377.028809 
	C566.987366,393.518311 566.987793,410.007782 566.987793,426.996765 
z"/>
<path fill="#F66A7B" opacity="1.000000" stroke="none" 
	d="
M386.292603,462.560883 
	C363.934113,416.054321 366.224579,371.572479 395.453827,329.020020 
	C397.793518,325.613892 400.700623,322.597595 403.077148,319.722961 
	C431.009583,347.701019 458.739655,375.476318 486.162659,402.944092 
	C459.085480,430.002777 431.344391,457.724884 402.655212,486.394440 
	C397.459045,478.852386 391.960907,470.871979 386.292603,462.560883 
z"/>
<path fill="#F06778" opacity="1.000000" stroke="none" 
	d="
M577.684326,490.827332 
	C577.657959,486.537811 577.657959,482.729980 577.657959,478.556427 
	C593.209839,478.556427 608.386475,478.556427 623.801941,478.556427 
	C623.801941,483.301910 623.801941,487.868042 623.801941,492.871979 
	C608.809570,492.871979 594.054382,492.888306 579.299683,492.806122 
	C578.767334,492.803162 578.240295,491.830017 577.684326,490.827332 
z"/>
<path fill="#F46979" opacity="1.000000" stroke="none" 
	d="
M617.853027,377.177063 
	C619.975342,377.177094 621.616699,377.177094 623.646606,377.177094 
	C623.646606,382.137878 623.646606,386.822449 623.646606,391.765564 
	C608.443970,391.765564 593.267700,391.765564 577.909302,391.765564 
	C577.909302,386.918854 577.909302,382.344788 577.909302,377.177063 
	C591.226746,377.177063 604.299377,377.177063 617.853027,377.177063 
z"/>
<path fill="#EF6777" opacity="1.000000" stroke="none" 
	d="
M607.995361,402.428375 
	C613.452759,402.428406 618.411377,402.428406 623.704285,402.428406 
	C623.704285,407.358398 623.704285,411.899384 623.704285,416.756104 
	C608.548889,416.756104 593.378113,416.756104 577.926147,416.756104 
	C577.926147,412.062622 577.926147,407.516815 577.926147,402.428345 
	C587.966736,402.428345 597.731750,402.428345 607.995361,402.428375 
z"/>
<path fill="#EF6677" opacity="1.000000" stroke="none" 
	d="
M669.980652,427.908112 
	C673.781799,427.908112 677.085876,427.908112 680.742432,427.908112 
	C680.742432,432.724243 680.742432,437.278198 680.742432,442.172852 
	C665.589661,442.172852 650.404846,442.172852 634.925659,442.172852 
	C634.925659,437.568115 634.925659,433.136505 634.925659,427.908112 
	C646.398682,427.908112 657.941101,427.908112 669.980652,427.908112 
z"/>
<path fill="#F46979" opacity="1.000000" stroke="none" 
	d="
M555.975281,453.006653 
	C559.771606,453.006653 563.071777,453.006653 566.677734,453.006653 
	C566.677734,457.995209 566.677734,462.691345 566.677734,467.633667 
	C551.446228,467.633667 536.407410,467.633667 520.996338,467.633667 
	C520.996338,462.912018 520.996338,458.343750 520.996338,453.006653 
	C532.385742,453.006653 543.932434,453.006653 555.975281,453.006653 
z"/>
<path fill="#F46979" opacity="1.000000" stroke="none" 
	d="
M577.655640,460.964081 
	C577.655640,458.175720 577.655640,455.874054 577.655640,453.293457 
	C593.210693,453.293457 608.400391,453.293457 623.814026,453.293457 
	C623.814026,458.066895 623.814026,462.650208 623.814026,467.555908 
	C608.521484,467.555908 593.346863,467.555908 577.655701,467.555908 
	C577.655701,465.360077 577.655701,463.405426 577.655640,460.964081 
z"/>
<path fill="#F46979" opacity="1.000000" stroke="none" 
	d="
M634.650391,459.991425 
	C634.650391,457.534058 634.650391,455.562653 634.650391,453.300049 
	C650.203796,453.300049 665.406494,453.300049 680.849365,453.300049 
	C680.849365,458.048096 680.849365,462.632690 680.849365,467.548523 
	C665.566895,467.548523 650.380371,467.548523 634.650391,467.548523 
	C634.650391,465.047394 634.650391,462.762421 634.650391,459.991425 
z"/>
<path fill="#F06778" opacity="1.000000" stroke="none" 
	d="
M664.996826,492.930695 
	C654.723389,492.930695 644.949036,492.930695 634.937866,492.930695 
	C634.937866,487.850006 634.937866,483.291473 634.937866,478.460541 
	C650.297058,478.460541 665.359131,478.460541 680.759399,478.460541 
	C680.759399,483.148651 680.759399,487.714142 680.759399,492.930695 
	C675.687866,492.930695 670.591919,492.930695 664.996826,492.930695 
z"/>
<path fill="#F06778" opacity="1.000000" stroke="none" 
	d="
M539.001221,478.187103 
	C548.447632,478.187103 557.394409,478.187103 566.667358,478.187103 
	C566.667358,483.123322 566.667358,487.687469 566.667358,492.593323 
	C551.535156,492.593323 536.358032,492.593323 520.901123,492.593323 
	C520.901123,487.866699 520.901123,483.310455 520.901123,478.187103 
	C526.949585,478.187103 532.725586,478.187103 539.001221,478.187103 
z"/>
<path fill="#F76A7B" opacity="1.000000" stroke="none" 
	d="
M593.001099,442.467407 
	C587.846130,442.467468 583.191040,442.467468 578.102295,442.467468 
	C578.102295,437.695282 578.102295,433.143036 578.102295,428.255493 
	C593.074951,428.255493 608.157349,428.255493 623.635742,428.255493 
	C623.635742,432.617401 623.635742,437.167725 623.635742,442.467377 
	C613.640747,442.467377 603.570923,442.467377 593.001099,442.467407 
z"/>
<path fill="#F46979" opacity="1.000000" stroke="none" 
	d="
M440.730072,796.947876 
	C428.477570,799.166992 420.065247,794.042603 416.952118,782.462219 
	C414.649841,773.898193 414.904968,765.316650 418.259766,757.042175 
	C421.491089,749.072327 427.831451,744.976868 436.057770,745.116821 
	C443.946899,745.250916 450.024994,749.521667 452.995056,757.499084 
	C456.353699,766.520203 456.406586,775.738647 453.392487,784.852905 
	C451.404816,790.863342 447.415710,795.124512 440.730072,796.947876 
z"/>
<path fill="#F46979" opacity="1.000000" stroke="none" 
	d="
M326.237671,792.802856 
	C317.140320,784.342224 317.134766,763.049438 323.753937,753.239929 
	C331.280579,742.085510 348.058319,742.087036 354.609436,753.834167 
	C360.811493,764.955200 360.956116,776.917419 355.244781,788.305786 
	C349.970978,798.821777 336.645508,800.720215 326.237671,792.802856 
z"/>
<path fill="#F26878" opacity="1.000000" stroke="none" 
	d="
M189.210495,718.879272 
	C195.347260,718.932678 201.014175,718.808289 206.662369,719.077271 
	C217.931976,719.613953 224.718170,726.658752 225.097382,737.921509 
	C225.506088,750.060486 219.431396,757.954041 207.976700,758.942932 
	C200.419052,759.595398 192.759415,759.066345 184.761414,759.066345 
	C184.761414,745.966248 184.761414,732.905640 184.761414,719.261414 
	C185.950272,719.147034 187.341232,719.013184 189.210495,718.879272 
z"/>
<path fill="#F26878" opacity="1.000000" stroke="none" 
	d="
M763.906738,800.152405 
	C759.132263,800.501953 754.631042,801.347168 750.331177,800.747986 
	C744.709106,799.964539 741.738464,796.030457 741.464050,790.887634 
	C741.206482,786.061829 743.662170,781.892761 748.920044,780.353333 
	C754.777039,778.638489 760.912964,777.884583 766.916016,776.656250 
	C769.501404,776.127258 772.057983,775.457336 774.628296,774.851257 
	C777.335327,787.293030 774.108398,795.055603 763.906738,800.152405 
z"/>
<path fill="#EF6677" opacity="1.000000" stroke="none" 
	d="
M639.431152,561.868652 
	C640.263550,569.685913 637.710266,573.038330 630.526184,573.573486 
	C626.735474,573.855835 622.906372,573.623413 618.660767,573.623413 
	C618.660767,567.855774 618.660767,562.313171 618.660767,556.728638 
	C628.225647,553.916321 635.864563,555.658447 639.431152,561.868652 
z"/>
<path fill="#EF6777" opacity="1.000000" stroke="none" 
	d="
M618.256348,533.605591 
	C621.770447,530.675842 631.053772,530.714172 633.169312,533.753235 
	C634.419861,535.549866 635.201599,538.609558 634.540283,540.532471 
	C633.900452,542.393005 631.317017,544.355591 629.273132,544.787659 
	C625.957336,545.488647 622.385132,544.976501 618.235779,544.976501 
	C618.235779,541.209778 618.235779,537.627625 618.256348,533.605591 
z"/>
<path fill="#F46979" opacity="1.000000" stroke="none" 
	d="
M544.283020,553.913086 
	C543.923828,556.491272 543.803589,558.682129 543.183167,560.720703 
	C539.821228,571.765869 533.888733,574.967529 520.081787,573.169373 
	C520.081787,559.978760 520.081787,546.750000 520.081787,533.552673 
	C536.227295,531.013245 543.786377,537.290894 544.283020,553.913086 
z"/>
</svg>